<?xml version="1.0" standalone="yes"?>
<svg xmlns="http://www.w3.org/2000/svg" width="499" height="362">
<path style="fill:#fefefe; stroke:none;" d="M0 0L0 266L34 266L34 93L6 93L6 1L92 1C84.3606 -2.20563 72.2707 0 64 0L0 0z"/>
<path style="fill:#618cbf; stroke:none;" d="M92 0C95.6987 1.552 100.017 1 104 1L126 1C122.301 -0.552032 117.983 0 114 0L92 0z"/>
<path style="fill:#555c62; stroke:none;" d="M126 0C129.699 1.55203 134.017 1 138 1L160 1C156.301 -0.552032 151.983 0 148 0L126 0z"/>
<path style="fill:#050514; stroke:none;" d="M7 2L7 93L35 93L35 266L0 266L0 359L186 359L186 283C192.726 287.748 200.87 288.426 207.787 292.419C212.756 295.287 219.897 308.326 220.424 314C220.878 318.885 217.192 323.24 216.576 327.985C215.997 332.451 219.102 334.228 223 334C226.278 338.789 232.367 337.12 236.39 340.6C241.94 345.399 245.193 354.779 249 361C254.885 355.195 258.755 346.173 262.85 339C268.859 328.474 276.205 318.128 281 307C286.058 313.065 293.674 318.232 302 315.272C306.029 313.84 309.652 310.58 313 308L313 359L499 359L499 266L464 266L464 93L492 93L492 2C435.095 2 377.906 0 321 0C318.61 7.5524 313.256 18.0905 307 23C300.422 12.2462 279.783 19.9837 281 3C273.225 5.65234 272.021 11.5263 272 19C266.971 18.0665 262.1 18 257 18C260.387 21.778 263.432 25.0895 265 30C258.394 29.8403 254.963 27.1546 251 22C249.783 31.1354 261.714 31.9993 268 32C265.744 38.1362 258.121 38.1152 253.185 34.4113C248.601 30.9706 246.795 24.3853 246 19C247.635 19.545 247.455 19.3649 248 21C248.292 17.937 246.578 15.6191 245 13C240.208 24.4188 250.061 36.3058 256 45C248.851 46.6941 243.507 49.7823 236 48C237.874 54.3047 241.351 57.636 248 58C247.014 59.4785 247 59.2032 247 61L251 59C248.467 67.7927 242.966 72.9268 233.996 74.9815C227.073 76.5672 220.427 75.1293 220 67C224.492 69.4393 228.033 69.4657 233 70C236.749 66.9167 241.598 66.695 245 63C238.48 64.5084 231.858 68.1565 225 66.6057C221.414 65.7948 218.364 63.394 215 62L217 71C207.176 54.1851 198.006 36.9585 188.424 20C185.358 14.573 182.046 4.4187 176.621 1.02777C172.047 -1.83124 163.039 0.119934 158 0.714508C149.168 1.75656 139.887 1 131 1C89.6637 1 48.2557 2 7 2z"/>
<path style="fill:#555c62; stroke:none;" d="M177 0L178 1L177 0z"/>
<path style="fill:#fefefe; stroke:none;" d="M178 0C181.053 8.38916 186.312 16.2481 190.719 24C198.624 37.9058 206.551 51.842 214 66C214.779 64.2309 214.912 62.9641 215 61C224.52 68.2578 238.544 68.8381 247 59C241.095 57.2449 237.755 53.905 236 48C242.974 49.6411 248.452 47.2115 255 45C250.326 33.9437 240.482 25.1688 245 12C248.713 20.6049 253.905 28.8808 264 29C263.01 24.0929 259.789 21.0107 257 17L271 18C271.34 10.6906 274.946 5.39841 282 3C278.522 15.1309 291.064 14.3134 299 17.108C302.705 18.4128 305.749 20.8788 309 23C313.319 15.5998 317.705 7.91541 321 0L178 0z"/>
<path style="fill:#555c62; stroke:none;" d="M338 0C341.699 1.552 346.017 1 350 1L372 1C368.301 -0.552032 363.983 0 360 0L338 0z"/>
<path style="fill:#618cbf; stroke:none;" d="M372 0C375.699 1.552 380.017 1 384 1L407 1C403.301 -0.552002 398.983 0 395 0L372 0z"/>
<path style="fill:#fefefe; stroke:none;" d="M407 0C414.4 3.10495 425.993 1 434 1L493 1L493 93L465 93L465 266L499 266L499 0L407 0z"/>
<path style="fill:#618cbf; stroke:none;" d="M6 1L6 93C8.80208 86.3223 7 76.2156 7 69L7 22C7 15.5798 8.49717 6.95105 6 1z"/>
<path style="fill:#555c62; stroke:none;" d="M7 1C11.9741 3.08719 18.638 2 24 2C19.0259 -0.0871887 12.362 1 7 1z"/>
<path style="fill:#618cbf; stroke:none;" d="M320 1L321 2L320 1z"/>
<path style="fill:#555c62; stroke:none;" d="M475 1C479.974 3.08719 486.638 2 492 2C487.026 -0.0872192 480.362 1 475 1z"/>
<path style="fill:#618cbf; stroke:none;" d="M492 1L492 93C494.497 87.049 493 78.4202 493 72L493 25C493 17.7844 494.802 7.6777 492 1z"/>
<path style="fill:#555c62; stroke:none;" d="M178 2L179 3L178 2M320 2L321 3L320 2z"/>
<path style="fill:#618cbf; stroke:none;" d="M179 3L180 4L179 3M281 3L282 4L281 3M319 3L320 4L319 3z"/>
<path style="fill:#555c62; stroke:none;" d="M179 4L180 5L179 4M319 4L320 5L319 4z"/>
<path style="fill:#618cbf; stroke:none;" d="M180 5L181 6L180 5M318 5L319 6L318 5z"/>
<path style="fill:#555c62; stroke:none;" d="M280 6L280 9C280.696 7.44629 280.696 7.55371 280 6z"/>
<path style="fill:#618cbf; stroke:none;" d="M181 7L182 8L181 7M317 7L318 8L317 7z"/>
<path style="fill:#090978; stroke:none;" d="M275 8C274.581 10.2885 273.992 12.6486 274.383 14.9861C276.197 25.8282 294.718 22.6028 301.811 28.0548C306.469 31.6355 305.143 35.9561 306 41C307.839 39.4827 309.134 38.3094 309.971 35.9815C315.826 19.7097 292.741 20.0042 284.213 15.49C280.118 13.3226 280.007 8.86078 275 8z"/>
<path style="fill:#555c62; stroke:none;" d="M182 9L183 10L182 9z"/>
<path style="fill:#618cbf; stroke:none;" d="M272 9L273 10L272 9z"/>
<path style="fill:#555c62; stroke:none;" d="M316 9L317 10L316 9M272 10L273 11L272 10z"/>
<path style="fill:#618cbf; stroke:none;" d="M281 10L282 11L281 10z"/>
<path style="fill:#555c62; stroke:none;" d="M56 11C59.9586 12.6611 64.7396 12 69 12L92 12C88.0414 10.3389 83.2604 11 79 11L56 11z"/>
<path style="fill:#618cbf; stroke:none;" d="M17 12L17 82L45 82L45 277L11 277L11 349L175 349L175 277L139 277L139 150C142.558 156.785 146.273 163.49 150.316 170C152.304 173.2 153.694 176.125 157 178C156.999 164.704 148.557 154.183 141.989 143C139.453 138.682 137.231 132.771 133 130L133 282L169 282L169 343L17 343L17 305C17 297.409 17.767 289.422 16 282L51 282L51 76L23 76L23 18C57.6707 18 92.2838 17 127 17L155 17C158.512 17 163.533 16.1276 166.671 18.0278C172.164 21.353 175.774 31.5041 178.706 37C186.427 51.4712 194.613 65.7408 202.719 80C206.383 86.4445 210.125 99.869 219 98C216.908 90.7379 212.351 84.5822 208.769 78C200.929 63.591 192.759 49.3997 184.919 35C182.161 29.9339 179.064 25.0642 176.309 20C174.824 17.2705 173.603 13.6893 170.787 12.0278C167.374 10.0142 161.806 11 158 11L129 11C91.6576 11 54.3849 12 17 12z"/>
<path style="fill:#555c62; stroke:none;" d="M171 11L172 12L171 11M183 11L184 12L183 11M315 11L316 12L315 11M327 11L328 12L327 11z"/>
<path style="fill:#618cbf; stroke:none;" d="M326 15C328.328 13.8172 330.511 12.7771 333 12L332 16C337.725 17.6923 344.06 17 350 17L380 17C412.057 17 443.974 18 476 18L476 76L448 76L448 282L482 282L482 343L330 343L330 282L366 282L366 129C360.785 134.569 357.367 142.391 353.579 149C346.694 161.009 339.936 173.146 332.796 185C328.451 192.214 321.952 199.373 325 208L327 208C335.555 188.146 351.604 171.317 359 151C362.605 163.196 360 179.289 360 192L360 277L328 277C327.982 283.417 324.517 288.029 324.055 294.039C322.664 312.132 324 330.849 324 349L488 349L488 277L454 277L454 82L482 82L482 12C442.61 12 403.358 11 364 11L337 11C332.317 11.0021 328.456 10.5464 326 15z"/>
<path style="fill:#555c62; stroke:none;" d="M408 11C411.699 12.552 416.017 12 420 12L442 12C438.301 10.448 433.983 11 430 11L408 11z"/>
<path style="fill:#618cbf; stroke:none;" d="M184 12L185 13L184 12z"/>
<path style="fill:#555c62; stroke:none;" d="M244 12L245 13L244 12z"/>
<path style="fill:#618cbf; stroke:none;" d="M271 12L272 13L271 12M283 12L284 13L283 12M314 12L315 13L314 12z"/>
<path style="fill:#090978; stroke:none;" d="M330.667 12.3333C330.222 12.7777 331.278 12.7223 331.333 12.6667C331.778 12.2222 330.722 12.2779 330.667 12.3333z"/>
<path style="fill:#555c62; stroke:none;" d="M332.333 12.6667C332.278 12.7222 332.222 13.7778 332.667 13.3333C332.722 13.2778 332.778 12.2221 332.333 12.6667z"/>
<path style="fill:#618cbf; stroke:none;" d="M245 13L246 14L245 13z"/>
<path style="fill:#555c62; stroke:none;" d="M271 13C270.697 15.2942 270.421 16.2115 269 18C272.458 19.3034 272.066 15.2224 271 13M284 13L285 14L284 13M328.667 13.3333C328.222 13.7777 329.278 13.7222 329.333 13.6667C329.778 13.2222 328.722 13.2778 328.667 13.3333z"/>
<path style="fill:#618cbf; stroke:none;" d="M185 14L186 15L185 14z"/>
<path style="fill:#555c62; stroke:none;" d="M286 14L287 15L286 14z"/>
<path style="fill:#618cbf; stroke:none;" d="M313 14L314 15L313 14M243.333 15.6667C243.278 15.7221 243.222 16.7779 243.667 16.3333C243.722 16.2777 243.778 15.2222 243.333 15.6667z"/>
<path style="fill:#555c62; stroke:none;" d="M246 15L247 16L246 15M282.667 15.3333C282.222 15.7777 283.278 15.7222 283.333 15.6667C283.778 15.2222 282.722 15.2778 282.667 15.3333M289 15L290 16L289 15z"/>
<path style="fill:#618cbf; stroke:none;" d="M290.667 15.3333C290.222 15.7777 291.278 15.7222 291.333 15.6667C291.778 15.2222 290.722 15.2779 290.667 15.3333M186 16L187 17L186 16z"/>
<path style="fill:#555c62; stroke:none;" d="M295.667 16.3333C295.222 16.7777 296.278 16.7222 296.333 16.6667C296.778 16.2222 295.722 16.2778 295.667 16.3333z"/>
<path style="fill:#618cbf; stroke:none;" d="M297 16L298 17L297 16z"/>
<path style="fill:#555c62; stroke:none;" d="M312 16L313 17L312 16M332 16L333 17L332 16M56 17C59.6987 18.552 64.0172 18 68 18L91 18C87.3013 16.448 82.9828 17 79 17L56 17M247 17L248 18L247 17z"/>
<path style="fill:#618cbf; stroke:none;" d="M257.667 17.3333C257.222 17.7777 258.278 17.7222 258.333 17.6667C258.778 17.2222 257.722 17.2778 257.667 17.3333z"/>
<path style="fill:#555c62; stroke:none;" d="M259 17C260.769 17.779 262.036 17.9124 264 18C262.231 17.2211 260.964 17.0876 259 17z"/>
<path style="fill:#618cbf; stroke:none;" d="M264 17C265.248 17.6848 265.548 17.7488 267 18C265.752 17.3152 265.452 17.2512 264 17M300 17L301 18L300 17z"/>
<path style="fill:#555c62; stroke:none;" d="M327 17L326 19C327.263 18.0286 327.392 18.3063 327 17z"/>
<path style="fill:#fefefe; stroke:none;" d="M328 17C324.006 21.4642 316.978 24.7164 314.318 30.0154C312.014 34.6055 313.273 44.7537 306.79 46.6543C303.194 47.7086 298.863 42.1544 296 40.5332C291.921 38.2237 285.878 39.2802 282.418 36.3966C280.195 34.5435 279.344 31.3431 277.671 29.0401C274.267 24.3525 269.595 21.9665 264 21C269.635 29.0317 274.78 34.6619 275 45C282.086 45.6234 287.525 49.0632 290.03 56C292.631 63.2008 287.922 70.1395 289.727 77C291.516 83.8024 296.144 89.7294 299.11 96C301.295 100.622 302.24 106.224 305.225 110.406C307.876 114.122 311.935 115.852 314 120C314.854 119.712 316.197 119.134 317.141 118.936C320.913 118.146 322.224 120.719 320.239 123.961C318.656 126.547 314 131.389 310.915 132.125C306.802 133.106 305.542 128.033 306.216 125.005C306.67 122.966 307.542 121.05 308 119C304.998 116.793 301.897 111.85 297.986 111.466C293.041 110.981 290.188 116.844 290.188 121C290.188 127.143 295.058 129.667 298.016 134.285C299.211 136.15 299.476 138.655 301.433 139.971C303.978 141.684 315.846 140.949 317.818 138.396C319.451 136.282 318.529 133.309 318 131C319.347 130.263 320.608 129.759 321.65 128.576C328.411 120.903 320.536 115.082 320.044 107C319.637 100.315 319.277 92.5996 320.465 86C321.606 79.6582 324.918 73.5574 324.816 67C324.693 59.0191 317.482 52.3734 318.565 44C319.693 35.2772 331.764 26.7462 328 17z"/>
<path style="fill:#555c62; stroke:none;" d="M329 17L329 20C329.696 18.4463 329.696 18.5537 329 17M407 17C410.699 18.552 415.017 18 419 18L440 18C436.301 16.448 431.983 17 428 17L407 17M175 18L176 19L175 18M187 18L188 19L187 18z"/>
<path style="fill:#618cbf; stroke:none;" d="M248 18L249 19L248 18M302 18L303 19L302 18z"/>
<path style="fill:#555c62; stroke:none;" d="M311 18L312 19L311 18M246 19L246 23C246.71 21.2405 246.71 20.7595 246 19z"/>
<path style="fill:#090978; stroke:none;" d="M247 19C247.046 24.4645 247.698 30.7123 252.329 34.4113C257.059 38.1892 266.529 38.7413 268 32C264.693 31.9978 261.049 32.3531 258.001 30.821C252.84 28.2266 251.029 22.6866 247 19z"/>
<path style="fill:#618cbf; stroke:none;" d="M258 19L259 20L258 19M304 19L305 20L304 19z"/>
<path style="fill:#090978; stroke:none;" d="M27 22L27 73C33.3329 73 39.6673 72.9572 46 73.0008C48.7252 73.0195 52.2447 72.7291 53.9722 75.3179C56.4518 79.0338 55 86.7152 55 91L55 132L55 286L21 286L21 340C52.9177 340 85.0003 339 117 339C132.926 339 149.197 338.003 165 340L165 286L128 286C130.567 265.687 129 244.476 129 224L129 116L131 116C132.478 126.145 143.289 133.176 144 144L150 146C148.985 150.239 153.465 159.033 158 160C157.598 161.944 157.598 162.057 158 164C162.811 157.983 169.033 145.351 166 138L170 140C169.506 133.327 163.707 130.151 162 124C161.089 125.377 160.596 126.44 160 128C158.412 122.473 159.877 117.708 163 113L160 110C162.85 109.979 165.271 109.81 168 109L168 107C160.502 104.694 152.076 102.687 144.17 104.264C135.215 106.05 130.822 111.679 121 109C122.801 108.438 124.122 108.176 126 108C124.494 107.317 123.685 107.174 122 107C125.606 105.934 129.392 106.191 132.961 104.946C136.859 103.586 139.968 100.95 144 100C143.664 97.2648 142.709 96.1111 141 94C146.168 94 151.811 93.361 156.91 94.2593C162.079 95.1698 166.676 97.6615 172 98L172 102C169.374 102.839 168.839 103.374 168 106L173 106C172.598 107.944 172.598 108.056 173 110C162.672 110.788 161.561 125.434 170 130C167.959 125.068 169.667 122.013 170 117C172.598 122.294 170.903 129.091 172 135C177.276 132.879 175.445 128.759 175.586 124C175.73 119.188 177.816 114.375 182 112C180.037 117.387 180 122.325 180 128C184.38 126.465 184.654 122.23 185 118C186.406 119.392 187.271 120.073 189 121C189.731 117.547 189.814 114.435 189 111L194 110C192.466 112.674 191.485 114.948 191 118C198.517 114.37 204.484 111.084 213 110L213 108C207.504 107.173 203.997 104.781 200 101C202.709 100.352 205.216 100.058 208 100C206.948 92.0484 202.305 87.581 198.595 80.9606C196.474 77.1765 195.465 72.8753 193.367 69.0895C187.964 59.3414 181.783 49.9972 176.753 40C174.486 35.4952 171.627 31.4175 169.258 26.9861C168.166 24.9432 167.108 21.5957 164.699 20.7322C162.221 19.844 157.743 21.9493 154.999 21.9954C145.339 22.1577 135.662 22 126 22L27 22z"/>
<path style="fill:#555c62; stroke:none;" d="M169 20L170 21L169 20M176 20L177 21L176 20M188 20L189 21L188 20M249 20L250 21L249 20z"/>
<path style="fill:#618cbf; stroke:none;" d="M259 20L260 21L259 20M305 20L306 21L305 20z"/>
<path style="fill:#555c62; stroke:none;" d="M310 20L311 21L310 20M40 21C43.6986 22.552 48.0172 22 52 22L72 22C68.3013 20.448 63.9828 21 60 21L40 21z"/>
<path style="fill:#618cbf; stroke:none;" d="M189 21L190 22L189 21M250 21L251 22L250 21M260 21L261 22L260 21z"/>
<path style="fill:#555c62; stroke:none;" d="M267 21L268 22L267 21z"/>
<path style="fill:#050514; stroke:none;" d="M299.667 21.3333C299.222 21.7777 300.278 21.7223 300.333 21.6667C300.778 21.2222 299.722 21.2778 299.667 21.3333z"/>
<path style="fill:#618cbf; stroke:none;" d="M324 21L325 22L324 21z"/>
<path style="fill:#090978; stroke:none;" d="M333 21C330.831 25.245 329.344 29.7724 327.179 34C324.741 38.759 321.558 42.3179 322.189 48C322.955 54.9019 329.427 60.1512 329.487 67C329.534 72.417 326.16 76.4489 324.549 81.2855C323.085 85.6765 324 91.4208 324 96C324 100.872 323.413 106.185 324.225 111C325.647 119.439 330.517 123.569 323 131L324 140C317.178 141.372 314.594 150.277 307 152C307.348 157.476 309.12 162.406 308.985 168C308.88 172.39 306.971 177.602 308.742 181.83C311.19 187.674 317.229 191.92 320 198L322 198C324.832 191.523 328.755 185.206 332.309 179.09C334.845 174.723 338.039 171.239 338 166C342.49 163.428 344.444 158.042 347.054 153.714C351.121 146.968 354.637 140.065 358.517 133.285C362.538 126.26 367.797 120.438 368 112L370 112L370 288C365.473 285.645 360.999 286 356 286C351.174 286 339.636 283.878 335.742 287.028C332.576 289.589 334 297.414 334 301L334 339L431 339C439.992 339 449.011 338.794 458 339.015C465.663 339.202 471.44 340 479 338C477.24 328.519 478 318.614 478 309C478 301.409 477.233 293.422 479 286L444 286L444 73L472 73L472 22C441.33 22 410.59 21 380 21C364.753 21 348.027 24.5778 333 21z"/>
<path style="fill:#555c62; stroke:none;" d="M392 21C397.951 23.4972 406.58 22 413 22L458 22C452.049 19.5028 443.42 21 437 21L392 21M170 22L171 23L170 22M177 22L178 23L177 22z"/>
<path style="fill:#618cbf; stroke:none;" d="M261 22L262 23L261 22M269 22L270 23L269 22z"/>
<path style="fill:#555c62; stroke:none;" d="M270 22L271 23L270 22M307 22L308 23L307 22z"/>
<path style="fill:#618cbf; stroke:none;" d="M323 22L324 23L323 22z"/>
<path style="fill:#555c62; stroke:none;" d="M328 22L329 23L328 22z"/>
<path style="fill:#618cbf; stroke:none;" d="M190 23L191 24L190 23z"/>
<path style="fill:#555c62; stroke:none;" d="M244 23L245 24L244 23M321 23L322 24L321 23z"/>
<path style="fill:#618cbf; stroke:none;" d="M244 24L245 25L244 24z"/>
<path style="fill:#555c62; stroke:none;" d="M252 24L253 25L252 24z"/>
<path style="fill:#618cbf; stroke:none;" d="M273 24L274 25L273 24z"/>
<path style="fill:#555c62; stroke:none;" d="M319 24L320 25L319 24M327 24L328 25L327 24M172 25L173 26L172 25M179 25L180 26L179 25M191 25L192 26L191 25z"/>
<path style="fill:#618cbf; stroke:none;" d="M253 25L254 26L253 25z"/>
<path style="fill:#555c62; stroke:none;" d="M263 25L264 26L263 25M317 25L318 26L317 25z"/>
<path style="fill:#618cbf; stroke:none;" d="M254 26L255 27L254 26z"/>
<path style="fill:#555c62; stroke:none;" d="M268 26L269 27L268 26z"/>
<path style="fill:#618cbf; stroke:none;" d="M275 26C275.545 27.6352 275.365 27.4549 277 28C276.455 26.3649 276.635 26.545 275 26z"/>
<path style="fill:#555c62; stroke:none;" d="M276 26L277 27L276 26z"/>
<path style="fill:#618cbf; stroke:none;" d="M316 26L317 27L316 26M326 26L326 30C326.71 28.2405 326.71 27.7595 326 26z"/>
<path style="fill:#555c62; stroke:none;" d="M180 27L181 28L180 27M192 27L193 28L192 27M245 27L246 28L245 27z"/>
<path style="fill:#618cbf; stroke:none;" d="M255 27L256 28L255 27z"/>
<path style="fill:#555c62; stroke:none;" d="M264 27L265 28L264 27z"/>
<path style="fill:#618cbf; stroke:none;" d="M269 27L270 28L269 27M315 27L316 28L315 27z"/>
<path style="fill:#555c62; stroke:none;" d="M174.333 28.6667C174.278 28.7221 174.222 29.7779 174.667 29.3333C174.722 29.2777 174.778 28.2223 174.333 28.6667z"/>
<path style="fill:#618cbf; stroke:none;" d="M193 28L194 29L193 28M245 28L246 29L245 28z"/>
<path style="fill:#555c62; stroke:none;" d="M256 28L257 29L256 28z"/>
<path style="fill:#618cbf; stroke:none;" d="M264 28L265 29L264 28M270 28L271 29L270 28M277 28L278 29L277 28z"/>
<path style="fill:#555c62; stroke:none;" d="M314 28L315 29L314 28M193 29L194 30L193 29M258 29C260.332 29.9845 262.457 29.9813 265 30C262.668 29.0155 260.543 29.0187 258 29M278 29L279 30L278 29M175 30L176 31L175 30z"/>
<path style="fill:#618cbf; stroke:none;" d="M194 30L195 31L194 30z"/>
<path style="fill:#555c62; stroke:none;" d="M246 30L247 31L246 30z"/>
<path style="fill:#618cbf; stroke:none;" d="M271 30L272 31L271 30M313.333 30.6667C313.278 30.7222 313.222 31.7778 313.667 31.3333C313.722 31.2779 313.778 30.2221 313.333 30.6667z"/>
<path style="fill:#555c62; stroke:none;" d="M326 30L327 31L326 30M279 31L280 32L279 31z"/>
<path style="fill:#618cbf; stroke:none;" d="M325 31L326 32L325 31M195 32L196 33L195 32z"/>
<path style="fill:#555c62; stroke:none;" d="M247 32L248 33L247 32M272 32L273 33L272 32M325 32L326 33L325 32M280 33L281 34L280 33z"/>
<path style="fill:#618cbf; stroke:none;" d="M324 33L325 34L324 33z"/>
<path style="fill:#555c62; stroke:none;" d="M177 34L178 35L177 34M184 34L185 35L184 34M196 34L197 35L196 34M248 34L249 35L248 34z"/>
<path style="fill:#618cbf; stroke:none;" d="M280 34L281 35L280 34M273 35L274 36L273 35z"/>
<path style="fill:#555c62; stroke:none;" d="M281.333 35.6667C281.278 35.7223 281.222 36.7777 281.667 36.3333C281.722 36.2778 281.778 35.2222 281.333 35.6667M323 35L324 36L323 35M178 36L179 37L178 36M197 36L198 37L197 36z"/>
<path style="fill:#618cbf; stroke:none;" d="M249 36L250 37L249 36z"/>
<path style="fill:#555c62; stroke:none;" d="M273 36L274 37L273 36M322 36L323 37L322 36M250 37L251 38L250 37z"/>
<path style="fill:#618cbf; stroke:none;" d="M321 37L322 38L321 37z"/>
<path style="fill:#555c62; stroke:none;" d="M179 38L180 39L179 38M186 38L187 39L186 38z"/>
<path style="fill:#618cbf; stroke:none;" d="M274 38L274 43C274.83 40.9695 274.83 40.0305 274 38M291 38L292 39L291 38z"/>
<path style="fill:#555c62; stroke:none;" d="M292 38L293 39L292 38M312 38L313 39L312 38z"/>
<path style="fill:#618cbf; stroke:none;" d="M320 38L321 39L320 38M199 39L200 40L199 39z"/>
<path style="fill:#555c62; stroke:none;" d="M294 39L295 40L294 39z"/>
<path style="fill:#618cbf; stroke:none;" d="M312 39L313 40L312 39M252 40L253 41L252 40z"/>
<path style="fill:#555c62; stroke:none;" d="M296 40L297 41L296 40M188 41L189 42L188 41z"/>
<path style="fill:#618cbf; stroke:none;" d="M200 41L201 42L200 41M253 41L254 42L253 41M297 41L298 42L297 41M311 41L312 42L311 41M254 42L255 43L254 42z"/>
<path style="fill:#555c62; stroke:none;" d="M310 42L311 43L310 42z"/>
<path style="fill:#618cbf; stroke:none;" d="M318 42L318 47C318.83 44.9695 318.83 44.0305 318 42z"/>
<path style="fill:#555c62; stroke:none;" d="M182 43L183 44L182 43z"/>
<path style="fill:#090978; stroke:none;" d="M189 43L190 44L189 43z"/>
<path style="fill:#555c62; stroke:none;" d="M201 43L202 44L201 43z"/>
<path style="fill:#618cbf; stroke:none;" d="M255.333 43.6667C255.278 43.7221 255.222 44.7779 255.667 44.3333C255.722 44.2777 255.778 43.2223 255.333 43.6667z"/>
<path style="fill:#555c62; stroke:none;" d="M274 43L273 46C274.766 45.0214 274.955 44.7782 274 43M300 43L301 44L300 43z"/>
<path style="fill:#618cbf; stroke:none;" d="M202 44L203 45L202 44z"/>
<path style="fill:#555c62; stroke:none;" d="M301 44L302 45L301 44M309 44L310 45L309 44M183 45L184 46L183 45M190.333 45.6667C190.278 45.7221 190.222 46.7778 190.667 46.3333C190.722 46.2777 190.778 45.2222 190.333 45.6667M202 45L203 46L202 45M253 45L254 46L253 45z"/>
<path style="fill:#090978; stroke:none;" d="M252 48L253 50C248.27 50 243.558 49.6527 239 51C244.858 59.5868 257.109 53.1853 260 45L252 48z"/>
<path style="fill:#618cbf; stroke:none;" d="M208 134C208.003 129.578 208.447 125.377 209 121C198.677 122.84 188.815 130.222 181.104 137.004C177.348 140.308 174.948 145.512 170 147C168.24 153.317 162.572 158.117 160.9 165C156.167 184.48 165 218.887 189 220C183.987 209.261 178.468 199.084 177.174 187C176.418 179.945 177.448 172.998 178 166C179.903 172.452 177.974 179.291 179.314 186C182.019 199.541 195.216 210.31 208 214C209.36 206.783 212.908 199.146 213.578 192C213.868 188.906 212.515 186.033 212.188 183C211.826 179.637 212.58 176.32 213 173C214.259 177.221 214.378 181.675 215.286 186C215.908 188.959 217.324 191.929 217.146 195C216.947 198.428 215.084 201.629 214.468 205C213.444 210.612 214.542 218.802 216.97 223.981C221.89 234.474 238.919 224.369 243.307 217.7C245.377 214.554 244.702 207.783 245 204C245.772 206.586 245.774 209.45 246.737 211.961C247.589 214.181 249.562 215.838 250.127 218.17C251.787 225.032 248.845 237.2 247.152 244C245.717 249.765 241.624 253.943 241 260C240.28 257.158 241.281 252.906 239.357 250.573C235.223 245.558 226.9 248.592 223.843 253.094C219.336 259.733 219.809 271.879 225.394 277.772C233.203 286.012 248.265 278.959 253.904 271.999C261.738 262.332 262.157 247.982 262.975 236C263.232 232.24 264.609 227.753 263.678 224.043C262.911 220.986 260.052 219.179 258 217C260.925 216.966 263.892 217.088 266.196 214.968C271.224 210.34 268.525 199.472 263.61 195.628C260.788 193.422 256.348 194.238 253 193.837C242.937 192.632 236.943 190.171 227 194C229.695 191.37 232.376 188.49 236 187.163C242.418 184.812 250.519 189.127 257 190C256.999 181.788 255.63 176.806 251 170C255.576 172.476 258.469 176.757 263 179C262.543 172.268 263.591 165.617 261.699 159C259.778 152.281 255.004 146.59 251 141C254.202 139.767 257.484 138.139 261 138.278C268.985 138.592 273.825 145.123 281 147C280.749 134.858 277.51 122.664 274.36 111C272.837 105.364 270.521 99.8817 270.09 94C269.707 88.7712 269.651 83.0401 271.221 78C272.735 73.1372 275.472 69.1568 276 64C276.855 68.3785 274.722 71.683 274.185 76C273.517 81.3672 274.371 86.8146 275.735 92C276.627 95.3936 277.184 99.8131 279.14 102.772C280.722 105.166 283.536 105.592 285.437 107.559C288.267 110.489 288.504 116.156 289 120C291.208 117.207 293.617 111.391 297.986 111.921C301.696 112.371 304.621 117.354 308 119C307.305 120.961 306.218 122.97 305.777 125.005C305.043 128.393 306.577 133.419 310.915 132.512C314.26 131.812 319.315 126.876 320.816 123.961C324.177 117.436 317.928 117.927 314 120C312.679 115.592 308.704 113.599 306 110C304.7 110.65 305 110.147 305 112C302.122 103.568 299.98 95.5569 295 88L293 89C290.07 83.2603 283.966 78.4965 282.322 72.1698C281.562 69.2461 283.384 66.8369 283.644 63.9962C283.896 61.2408 282.817 58.577 282 56C285.948 60.0812 285.894 65.9449 291 69C291 64.7791 291.546 60.0959 290.362 56C288.272 48.7723 279.784 41.9366 272.34 46.7685C268.755 49.0956 266.504 54.3544 264.539 58C257.919 70.2762 256.852 84.9109 250.291 96.9066C246.495 103.847 235.237 107.091 229 111.76C220.724 117.956 215.901 127.46 208 134z"/>
<path style="fill:#555c62; stroke:none;" d="M302 45L303 46L302 45z"/>
<path style="fill:#618cbf; stroke:none;" d="M203 46L204 47L203 46M250 46L251 47L250 46M308 46L309 47L308 46z"/>
<path style="fill:#555c62; stroke:none;" d="M191 47L192 48L191 47M248 47L249 48L248 47M254 47L255 48L254 47M270 47L271 48L270 47z"/>
<path style="fill:#618cbf; stroke:none;" d="M307 47L308 48L307 47M204 48L205 49L204 48z"/>
<path style="fill:#555c62; stroke:none;" d="M237 48L238 49L237 48z"/>
<path style="fill:#618cbf; stroke:none;" d="M244 48L245 49L244 48z"/>
<path style="fill:#555c62; stroke:none;" d="M245 48L246 49L245 48z"/>
<path style="fill:#fefefe; stroke:none;" d="M270 48L271 49L270 48z"/>
<path style="fill:#555c62; stroke:none;" d="M192 49L193 50L192 49M205 50L206 51L205 50M236 50L237 51L236 50z"/>
<path style="fill:#fefefe; stroke:none;" d="M268 50C262.171 58.1395 257.177 66.6829 253.449 76C251.215 81.5838 249.892 88.8718 246.182 93.6744C243.151 97.5983 237.861 100.316 234 103.4C224.163 111.257 213.919 120.621 210 133C217.028 126.858 221.597 118.36 229 112.518C234.919 107.846 245.548 104.816 249.775 98.6713C255.153 90.8557 256.027 78.8439 259.428 70C261.596 64.363 268.803 55.8149 268 50z"/>
<path style="fill:#555c62; stroke:none;" d="M319 50L320 51L319 50M193 51L194 52L193 51z"/>
<path style="fill:#618cbf; stroke:none;" d="M319 51L320 52L319 51z"/>
<path style="fill:#555c62; stroke:none;" d="M187 52L188 53L187 52M194 52L195 53L194 52M206 52L207 53L206 52M237 52L238 53L237 52z"/>
<path style="fill:#618cbf; stroke:none;" d="M266 52L267 53L266 52z"/>
<path style="fill:#555c62; stroke:none;" d="M265 53L266 54L265 53M188 54L189 55L188 54M195 54L196 55L195 54M207 54L208 55L207 54z"/>
<path style="fill:#618cbf; stroke:none;" d="M238 54L239 55L238 54z"/>
<path style="fill:#555c62; stroke:none;" d="M264 54L265 55L264 54M320 54L321 55L320 54z"/>
<path style="fill:#618cbf; stroke:none;" d="M208 55L209 56L208 55z"/>
<path style="fill:#555c62; stroke:none;" d="M239 55L240 56L239 55M240 56L241 57L240 56z"/>
<path style="fill:#618cbf; stroke:none;" d="M263 56L264 57L263 56z"/>
<path style="fill:#050514; stroke:none;" d="M282 56C282.592 58.5966 283.621 61.3066 283.441 64C283.206 67.5079 281.538 70.4232 282.707 73.9962C284.49 79.4501 289.943 84.1299 293 89C294.31 84.2244 290.177 79.1381 288 75C285.433 74.4583 284.74 73.9807 283 72C285.056 71.5125 286.144 71.0482 288 70L288 74C289.98 69.1064 285.691 59.4107 282 56z"/>
<path style="fill:#555c62; stroke:none;" d="M283 56L284 57L283 56M321 56L322 57L321 56z"/>
<path style="fill:#090978; stroke:none;" d="M197 57L198 58L197 57z"/>
<path style="fill:#618cbf; stroke:none;" d="M209 57L210 58L209 57z"/>
<path style="fill:#555c62; stroke:none;" d="M242 57L243 58L242 57M262 57L263 58L262 57z"/>
<path style="fill:#618cbf; stroke:none;" d="M321 57L322 58L321 57M244 58C245.248 58.6848 245.548 58.7488 247 59C245.752 58.3152 245.452 58.2512 244 58z"/>
<path style="fill:#555c62; stroke:none;" d="M247 58L248 59L247 58M271 58L270 62C271.146 60.3596 271.393 59.924 271 58M322 58L323 59L322 58M191 59L192 60L191 59M198 59L199 60L198 59M210 59L211 60L210 59z"/>
<path style="fill:#090978; stroke:none;" d="M250 59L244 62C242.95 65.438 240.204 66.1467 237 67.4452C230.093 70.244 226.709 69.6216 220 67C219.331 73.3534 223.918 76.3292 230 75.8248C238.002 75.1613 252.88 69.5044 250 59z"/>
<path style="fill:#555c62; stroke:none;" d="M261 59L262 60L261 59z"/>
<path style="fill:#618cbf; stroke:none;" d="M322 59L323 60L322 59z"/>
<path style="fill:#555c62; stroke:none;" d="M246 60L247 61L246 60z"/>
<path style="fill:#618cbf; stroke:none;" d="M296 60L296 64C296.71 62.2404 296.71 61.7595 296 60z"/>
<path style="fill:#050514; stroke:none;" d="M297 60C296.984 65.5339 295.494 69.7612 294 75C298.791 71.4399 303.333 64.4232 297 60z"/>
<path style="fill:#618cbf; stroke:none;" d="M311 60L312 61L311 60z"/>
<path style="fill:#050514; stroke:none;" d="M312 60C311.971 64.2119 314.066 67.3224 316 71L318 71L319 70L314 60L312 60z"/>
<path style="fill:#618cbf; stroke:none;" d="M323 60L324 61L323 60z"/>
<path style="fill:#555c62; stroke:none;" d="M192 61L193 62L192 61M199 61L200 62L199 61M211 61L212 62L211 61M215 61L216 62L215 61M245 61L246 62L245 61z"/>
<path style="fill:#618cbf; stroke:none;" d="M260 61L261 62L260 61z"/>
<path style="fill:#090978; stroke:none;" d="M269.333 61.6667C269.278 61.7223 269.222 62.7777 269.667 62.3333C269.722 62.2778 269.778 61.2222 269.333 61.6667z"/>
<path style="fill:#618cbf; stroke:none;" d="M299 61L300 62L299 61z"/>
<path style="fill:#555c62; stroke:none;" d="M314 61L315 62L314 61z"/>
<path style="fill:#618cbf; stroke:none;" d="M243 62L244 63L243 62z"/>
<path style="fill:#555c62; stroke:none;" d="M259 62L260 63L259 62M311 62L312 63L311 62M324 62L325 63L324 62M193 63L194 64L193 63M200 63L201 64L200 63z"/>
<path style="fill:#618cbf; stroke:none;" d="M218 63L219 64L218 63M241 63L242 64L241 63z"/>
<path style="fill:#555c62; stroke:none;" d="M242 63L243 64L242 63z"/>
<path style="fill:#618cbf; stroke:none;" d="M259 63L260 64L259 63z"/>
<path style="fill:#050514; stroke:none;" d="M268 63C264.878 68.3489 261.718 74.0355 260 80C263.669 76.3699 268.878 68.271 268 63z"/>
<path style="fill:#555c62; stroke:none;" d="M315 63L316 64L315 63z"/>
<path style="fill:#618cbf; stroke:none;" d="M324 63L325 64L324 63M213 64L214 65L213 64z"/>
<path style="fill:#555c62; stroke:none;" d="M219 64L220 65L219 64z"/>
<path style="fill:#618cbf; stroke:none;" d="M238 64L239 65L238 64z"/>
<path style="fill:#555c62; stroke:none;" d="M239 64L240 65L239 64M258 64L259 65L258 64z"/>
<path style="fill:#050514; stroke:none;" d="M276 64L276 68C276.71 66.2404 276.71 65.7595 276 64z"/>
<path style="fill:#555c62; stroke:none;" d="M286 64L286 67C286.696 65.4463 286.696 65.5537 286 64z"/>
<path style="fill:#618cbf; stroke:none;" d="M300 64L301 65L300 64M312 64L313 65L312 64M316 64L317 65L316 64z"/>
<path style="fill:#555c62; stroke:none;" d="M194 65L195 66L194 65M201 65L202 66L201 65M215 65L216 66L215 65z"/>
<path style="fill:#090978; stroke:none;" d="M217.333 65.6667C217.278 65.7221 217.222 66.7779 217.667 66.3333C217.722 66.2777 217.778 65.2223 217.333 65.6667z"/>
<path style="fill:#618cbf; stroke:none;" d="M221 65L222 66L221 65M235 65L236 66L235 65z"/>
<path style="fill:#555c62; stroke:none;" d="M236 65L237 66L236 65z"/>
<path style="fill:#618cbf; stroke:none;" d="M258 65L259 66L258 65z"/>
<path style="fill:#555c62; stroke:none;" d="M300 65L301 66L300 65z"/>
<path style="fill:#618cbf; stroke:none;" d="M317 65C317.545 66.6352 317.365 66.4549 319 67C318.455 65.3649 318.635 65.545 317 65M214 66C214.545 67.6352 214.365 67.455 216 68L216 66L214 66z"/>
<path style="fill:#555c62; stroke:none;" d="M223 66L224 67L223 66z"/>
<path style="fill:#618cbf; stroke:none;" d="M231 66L232 67L231 66z"/>
<path style="fill:#555c62; stroke:none;" d="M232.667 66.3333C232.222 66.7779 233.278 66.7221 233.333 66.6667C233.778 66.2224 232.722 66.2777 232.667 66.3333M257 66L258 67L257 66z"/>
<path style="fill:#618cbf; stroke:none;" d="M296.333 66.6667C296.278 66.7223 296.222 67.7777 296.667 67.3333C296.722 67.2778 296.778 66.2221 296.333 66.6667M313 66L314 67L313 66z"/>
<path style="fill:#555c62; stroke:none;" d="M317 66L318 67L317 66M282 67L283 68L282 67M300 67L301 68L300 67M318 67L319 68L318 67M196 68L197 69L196 68M203 68L204 69L203 68M215 68L216 71C216.685 69.7517 216.749 69.4515 217 68L215 68M233.667 68.3333C233.222 68.7779 234.278 68.7222 234.333 68.6667C234.778 68.2224 233.722 68.2776 233.667 68.3333M256 68L257 69L256 68M264.333 68.6667C264.278 68.7222 264.222 69.7778 264.667 69.3333C264.722 69.2778 264.778 68.2221 264.333 68.6667M276 68L277 69L276 68M289 68L289 72C289.71 70.2404 289.71 69.7595 289 68M296 68L297 69L296 68z"/>
<path style="fill:#618cbf; stroke:none;" d="M300 68L301 69L300 68M314 68L315 69L314 68z"/>
<path style="fill:#555c62; stroke:none;" d="M228 69C229.248 69.6848 229.548 69.7488 231 70C229.752 69.3152 229.452 69.2512 228 69M299 69L300 70L299 69M315 69L316 70L315 69M197 70L198 71L197 70M204 70L205 71L204 70M255 70L256 71L255 70M281 70L282 71L281 70M287 70L288 71L287 70z"/>
<path style="fill:#618cbf; stroke:none;" d="M295 70L296 71L295 70M315 70L316 71L315 70M318 70L319 71L318 70M324.333 70.6667C324.278 70.7222 324.222 71.7777 324.667 71.3333C324.722 71.2778 324.778 70.2222 324.333 70.6667M255 71L256 72L255 71z"/>
<path style="fill:#fefefe; stroke:none;" d="M286 71L283 74C286.137 74.4944 287 74.0359 288 71L286 71z"/>
<path style="fill:#618cbf; stroke:none;" d="M298 71L299 72L298 71z"/>
<path style="fill:#090978; stroke:none;" d="M198.333 72.6667C198.278 72.7222 198.222 73.7778 198.667 73.3333C198.722 73.2777 198.778 72.2222 198.333 72.6667z"/>
<path style="fill:#555c62; stroke:none;" d="M205 72L206 73L205 72z"/>
<path style="fill:#618cbf; stroke:none;" d="M283 72C284.248 72.6848 284.548 72.7488 286 73C284.752 72.3152 284.452 72.2512 283 72M289 72L290 73L289 72z"/>
<path style="fill:#555c62; stroke:none;" d="M294 72L295 73L294 72z"/>
<path style="fill:#618cbf; stroke:none;" d="M297 72L298 73L297 72z"/>
<path style="fill:#555c62; stroke:none;" d="M324 72L325 73L324 72M218 73L219 74L218 73z"/>
<path style="fill:#618cbf; stroke:none;" d="M254 73L255 74L254 73z"/>
<path style="fill:#555c62; stroke:none;" d="M262 73L263 74L262 73M264 73L265 74L264 73z"/>
<path style="fill:#618cbf; stroke:none;" d="M293 73L294 74L293 73z"/>
<path style="fill:#555c62; stroke:none;" d="M296 73L297 74L296 73z"/>
<path style="fill:#618cbf; stroke:none;" d="M219 74L219 76L221 76C220.455 74.3649 220.635 74.545 219 74z"/>
<path style="fill:#555c62; stroke:none;" d="M287.667 74.3333C287.222 74.7777 288.278 74.7222 288.333 74.6667C288.778 74.2222 287.722 74.2778 287.667 74.3333M295 74L296 75L295 74M221 75L222 76L221 75M253 75L254 76L253 75M261 75L262 76L261 75M285.667 75.3333C285.222 75.7777 286.278 75.7222 286.333 75.6667C286.778 75.2223 285.722 75.2778 285.667 75.3333z"/>
<path style="fill:#618cbf; stroke:none;" d="M288.333 75.6667C288.278 75.7222 288.222 76.7778 288.667 76.3333C288.722 76.2778 288.778 75.2222 288.333 75.6667M323 75L324 76L323 75z"/>
<path style="fill:#fefefe; stroke:none;" d="M220 76L227 89C230.578 86.2549 232.992 83.0315 235 79C229.674 78.8895 225.091 77.361 220 76z"/>
<path style="fill:#618cbf; stroke:none;" d="M222 76L223 77L222 76z"/>
<path style="fill:#555c62; stroke:none;" d="M271 76L272 77L271 76M201 77L202 78L201 77M208 77L209 78L208 77M220 77L221 78L220 77z"/>
<path style="fill:#618cbf; stroke:none;" d="M224 77L225 78L224 77z"/>
<path style="fill:#555c62; stroke:none;" d="M225 77L226 78L225 77z"/>
<path style="fill:#618cbf; stroke:none;" d="M289 77L290 78L289 77z"/>
<path style="fill:#555c62; stroke:none;" d="M209.333 78.6667C209.278 78.7221 209.222 79.7779 209.667 79.3333C209.722 79.2777 209.778 78.2223 209.333 78.6667z"/>
<path style="fill:#618cbf; stroke:none;" d="M228 78C230.527 79.0921 233.302 79.3485 236 80C233.896 77.5911 231.094 78.0103 228 78M252 78L253 79L252 78z"/>
<path style="fill:#555c62; stroke:none;" d="M273 78L273 82C273.71 80.2404 273.71 79.7595 273 78z"/>
<path style="fill:#618cbf; stroke:none;" d="M322 78L323 79L322 78z"/>
<path style="fill:#555c62; stroke:none;" d="M202 79L203 80L202 79M221 79L222 80L221 79M290 79L291 80L290 79M322 79L323 80L322 79z"/>
<path style="fill:#618cbf; stroke:none;" d="M222 80L223 81L222 80M234 80L235 81L234 80z"/>
<path style="fill:#555c62; stroke:none;" d="M251 80L252 81L251 80z"/>
<path style="fill:#090978; stroke:none;" d="M259 80L258 85C259.366 83.3685 260.142 81.9622 261 80L259 80z"/>
<path style="fill:#555c62; stroke:none;" d="M270.333 80.6667C270.278 80.7223 270.222 81.7777 270.667 81.3333C270.722 81.2778 270.778 80.2222 270.333 80.6667z"/>
<path style="fill:#090978; stroke:none;" d="M287 80L288 81L287 80z"/>
<path style="fill:#618cbf; stroke:none;" d="M291 80L292 81L291 80z"/>
<path style="fill:#555c62; stroke:none;" d="M203 81L204 82L203 81M210 81L211 82L210 81M222 81L223 82L222 81z"/>
<path style="fill:#618cbf; stroke:none;" d="M251 81L252 82L251 81z"/>
<path style="fill:#555c62; stroke:none;" d="M291 81L292 82L291 81z"/>
<path style="fill:#618cbf; stroke:none;" d="M321 81L322 82L321 81M223 82L224 83L223 82z"/>
<path style="fill:#555c62; stroke:none;" d="M233 82L234 83L233 82z"/>
<path style="fill:#090978; stroke:none;" d="M235 82C231.586 87.6345 224.956 93.438 224 100C218.518 100.045 213.42 101.557 208 102L208 106C212.139 105.998 216.95 106.467 220.907 105.041C228.311 102.373 237.468 89.7256 237 82L235 82z"/>
<path style="fill:#555c62; stroke:none;" d="M288 82L289 83L288 82M321 82L322 83L321 82M232 83L233 84L232 83z"/>
<path style="fill:#618cbf; stroke:none;" d="M250 83L251 84L250 83z"/>
<path style="fill:#555c62; stroke:none;" d="M289 83L290 84L289 83M292 83L293 84L292 83M205 84L206 85L205 84M212 84L213 85L212 84M224 84L225 85L224 84z"/>
<path style="fill:#618cbf; stroke:none;" d="M231 84L232 85L231 84z"/>
<path style="fill:#555c62; stroke:none;" d="M237 84L238 85L237 84M257 84L258 85L257 84M290 84L291 85L290 84M249 85L250 86L249 85z"/>
<path style="fill:#050514; stroke:none;" d="M257.333 85.6667C257.278 85.7223 257.222 86.7777 257.667 86.3333C257.722 86.2778 257.778 85.2222 257.333 85.6667z"/>
<path style="fill:#618cbf; stroke:none;" d="M293 85L294 86L293 85M320 85L320 100C321.74 95.8523 321.74 89.1477 320 85z"/>
<path style="fill:#050514; stroke:none;" d="M161 87C168.633 91.0583 178.129 88.3087 182 98L192 98C190.454 100.014 189.314 100.965 187 102C186.952 104.228 186.658 105.866 186 108C193.602 105.318 194.417 99.382 195 92C184.158 88.1263 172.602 83.5707 161 87z"/>
<path style="fill:#555c62; stroke:none;" d="M206 86L207 87L206 86M213 86L214 87L213 86M225 86L226 87L225 86M230 86L231 87L230 86z"/>
<path style="fill:#618cbf; stroke:none;" d="M249 86L250 87L249 86z"/>
<path style="fill:#555c62; stroke:none;" d="M274.333 86.6667C274.278 86.7223 274.222 87.7777 274.667 87.3333C274.722 87.2778 274.778 86.2222 274.333 86.6667z"/>
<path style="fill:#618cbf; stroke:none;" d="M226 87L227 88L226 87M229 87L230 88L229 87z"/>
<path style="fill:#555c62; stroke:none;" d="M256 87L256 90C257.015 88.8607 257.309 88.3885 258 87L256 87z"/>
<path style="fill:#618cbf; stroke:none;" d="M228 88L229 89L228 88M248.333 88.6667C248.278 88.7221 248.222 89.7778 248.667 89.3333C248.722 89.2777 248.778 88.2222 248.333 88.6667z"/>
<path style="fill:#090978; stroke:none;" d="M215 89L216 90L215 89z"/>
<path style="fill:#555c62; stroke:none;" d="M227 89L228 90L227 89M247 90L248 91L247 90z"/>
<path style="fill:#090978; stroke:none;" d="M255.333 90.6667C255.278 90.7221 255.222 91.7779 255.667 91.3333C255.722 91.2777 255.778 90.2222 255.333 90.6667M216 91L217 92L216 91z"/>
<path style="fill:#618cbf; stroke:none;" d="M247 91L248 92L247 91z"/>
<path style="fill:#555c62; stroke:none;" d="M275 91L276 92L275 91z"/>
<path style="fill:#618cbf; stroke:none;" d="M34 93L34 266C35.6611 262.041 35 257.26 35 253L35 227L35 137L35 108C35 103.191 35.8752 97.4687 34 93z"/>
<path style="fill:#555c62; stroke:none;" d="M210 93L211 94L210 93M217 93L218 94L217 93M246 93L247 94L246 93M254.333 93.6667C254.278 93.7221 254.222 94.7779 254.667 94.3333C254.722 94.2777 254.778 93.2223 254.333 93.6667z"/>
<path style="fill:#618cbf; stroke:none;" d="M464 93L464 266C465.875 261.531 465 255.809 465 251L465 222L465 132L465 106C465 101.74 465.661 96.9586 464 93M246 94L247 95L246 94z"/>
<path style="fill:#555c62; stroke:none;" d="M276 94L277 95L276 94M211 95L212 96L211 95M218 95L219 96L218 95M244 95L245 96L244 95z"/>
<path style="fill:#618cbf; stroke:none;" d="M243 96L244 97L243 96z"/>
<path style="fill:#555c62; stroke:none;" d="M270.333 96.6667C270.278 96.7223 270.222 97.7777 270.667 97.3333C270.722 97.2778 270.778 96.2222 270.333 96.6667M241 97L242 98L241 97z"/>
<path style="fill:#618cbf; stroke:none;" d="M240 98L241 99L240 98z"/>
<path style="fill:#555c62; stroke:none;" d="M213.667 99.3333C213.222 99.7778 214.278 99.7222 214.333 99.6667C214.778 99.2223 213.722 99.2777 213.667 99.3333M201 100C202.506 100.683 203.315 100.826 205 101C203.494 100.317 202.685 100.174 201 100M237 100L238 101L237 100M320 100L320 111C321.431 107.59 321.431 103.41 320 100z"/>
<path style="fill:#618cbf; stroke:none;" d="M236 101L237 102L236 101z"/>
<path style="fill:#555c62; stroke:none;" d="M271 101L272 102L271 101M205 102C206.248 102.685 206.548 102.749 208 103C206.752 102.315 206.452 102.251 205 102z"/>
<path style="fill:#618cbf; stroke:none;" d="M235 102L236 103L235 102z"/>
<path style="fill:#555c62; stroke:none;" d="M151 103C152.248 103.685 152.548 103.749 154 104C152.752 103.315 152.452 103.251 151 103M233 103L234 104L233 103M232 104L233 105L232 104M272.333 104.667C272.278 104.722 272.222 105.778 272.667 105.333C272.722 105.278 272.778 104.222 272.333 104.667M217.667 105.333C217.222 105.778 218.278 105.722 218.333 105.667C218.778 105.222 217.722 105.278 217.667 105.333z"/>
<path style="fill:#618cbf; stroke:none;" d="M231 105L232 106L231 105M230 106L231 107L230 106z"/>
<path style="fill:#555c62; stroke:none;" d="M285 106L286 107L285 106M286 107L287 108L286 107M227 108L228 109L227 108M226 109L227 110L226 109z"/>
<path style="fill:#618cbf; stroke:none;" d="M225 110L226 111L225 110z"/>
<path style="fill:#090978; stroke:none;" d="M274.333 110.667C274.278 110.722 274.222 111.778 274.667 111.333C274.722 111.278 274.778 110.222 274.333 110.667z"/>
<path style="fill:#555c62; stroke:none;" d="M304.333 110.667C304.278 110.722 304.222 111.778 304.667 111.333C304.722 111.278 304.778 110.222 304.333 110.667z"/>
<path style="fill:#618cbf; stroke:none;" d="M224 111L225 112L224 111M320 111L321 112L320 111z"/>
<path style="fill:#555c62; stroke:none;" d="M223 112L224 113L223 112M321 112L322 113L321 112M222 113L223 114L222 113z"/>
<path style="fill:#618cbf; stroke:none;" d="M321 113L322 114L321 113z"/>
<path style="fill:#555c62; stroke:none;" d="M221 114L222 115L221 114M322 114L323 115L322 114M189 115L189 118C189.696 116.446 189.696 116.554 189 115M206 115L207 116L206 115z"/>
<path style="fill:#618cbf; stroke:none;" d="M207 115L208 116L207 115z"/>
<path style="fill:#fefefe; stroke:none;" d="M208 115C193.524 121.457 176.313 131.981 171 148C174.706 145.327 176.948 141.733 180.209 138.615C188.127 131.044 198.407 124.052 209 121C208.953 118.747 208.874 117.052 208 115z"/>
<path style="fill:#618cbf; stroke:none;" d="M209.333 115.667C209.278 115.722 209.222 116.778 209.667 116.333C209.722 116.278 209.778 115.222 209.333 115.667z"/>
<path style="fill:#555c62; stroke:none;" d="M220 115L221 116L220 115M275 115L276 116L275 115M203 116L204 117L203 116z"/>
<path style="fill:#618cbf; stroke:none;" d="M204 116L205 117L204 116z"/>
<path style="fill:#555c62; stroke:none;" d="M219 116L220 117L219 116M296 116L295 118C296.263 117.029 296.392 117.306 296 116z"/>
<path style="fill:#050514; stroke:none;" d="M303 132C301.684 128.016 303.38 122.551 301.714 119.233C299.5 114.824 294.296 117.87 294.296 121.915C294.296 126.282 299.864 129.798 303 132z"/>
<path style="fill:#555c62; stroke:none;" d="M299 116L300 117L299 116z"/>
<path style="fill:#618cbf; stroke:none;" d="M323 116L324 117L323 116z"/>
<path style="fill:#555c62; stroke:none;" d="M201 117L202 118L201 117M209 117L210 118L209 117M324 117L325 118L324 117M199 118L200 119L199 118z"/>
<path style="fill:#618cbf; stroke:none;" d="M294 118L295 119L294 118M324 118L325 119L324 118z"/>
<path style="fill:#555c62; stroke:none;" d="M197 119L198 120L197 119z"/>
<path style="fill:#618cbf; stroke:none;" d="M198 119L199 120L198 119M217 119L218 120L217 119z"/>
<path style="fill:#090978; stroke:none;" d="M276 119L277 120L276 119z"/>
<path style="fill:#555c62; stroke:none;" d="M302 119L303 120L302 119M171 120L171 123C171.696 121.446 171.696 121.554 171 120z"/>
<path style="fill:#618cbf; stroke:none;" d="M196 120L197 121L196 120z"/>
<path style="fill:#555c62; stroke:none;" d="M216 120L217 121L216 120M289 120L290 121L289 120z"/>
<path style="fill:#618cbf; stroke:none;" d="M293 120L294 121L293 120z"/>
<path style="fill:#555c62; stroke:none;" d="M325 120L325 123C325.696 121.446 325.696 121.554 325 120M187 121L188 122L187 121M194 121L195 122L194 121M293 121L293 124C293.696 122.446 293.696 122.554 293 121z"/>
<path style="fill:#618cbf; stroke:none;" d="M193 122L194 123L193 122M215 122L216 123L215 122M302 122L303 123L302 122z"/>
<path style="fill:#555c62; stroke:none;" d="M191 123L192 124L191 123M214 123L215 124L214 123z"/>
<path style="fill:#090978; stroke:none;" d="M277 123L278 124L277 123z"/>
<path style="fill:#555c62; stroke:none;" d="M160 124L160 127C160.696 125.446 160.696 125.554 160 124z"/>
<path style="fill:#618cbf; stroke:none;" d="M190 124L191 125L190 124z"/>
<path style="fill:#555c62; stroke:none;" d="M208 124L208 134C209.763 130.95 209.366 127.227 208 124z"/>
<path style="fill:#618cbf; stroke:none;" d="M290.333 124.667C290.278 124.722 290.222 125.778 290.667 125.333C290.722 125.278 290.778 124.222 290.333 124.667M301 124L302 125L301 124M324 124L325 125L324 124M189 125L190 126L189 125M213 125L214 126L213 125z"/>
<path style="fill:#555c62; stroke:none;" d="M295 125L296 126L295 125M300.333 125.667C300.278 125.722 300.222 126.778 300.667 126.333C300.722 126.278 300.778 125.222 300.333 125.667M187 126L188 127L187 126z"/>
<path style="fill:#618cbf; stroke:none;" d="M296 126L297 127L296 126M323 126L324 127L323 126z"/>
<path style="fill:#555c62; stroke:none;" d="M186 127L187 128L186 127z"/>
<path style="fill:#618cbf; stroke:none;" d="M212 127L213 128L212 127z"/>
<path style="fill:#090978; stroke:none;" d="M278 127L279 128L278 127z"/>
<path style="fill:#555c62; stroke:none;" d="M291 127L292 128L291 127z"/>
<path style="fill:#618cbf; stroke:none;" d="M301 127L302 128L301 127M185 128L186 129L185 128z"/>
<path style="fill:#555c62; stroke:none;" d="M211 128L212 129L211 128M292 128L293 129L292 128M133 129L134 130L133 129z"/>
<path style="fill:#090978; stroke:none;" d="M134 129L135 130L134 129z"/>
<path style="fill:#618cbf; stroke:none;" d="M184 129L185 130L184 129M293 129L294 130L293 129M299 129L300 130L299 129z"/>
<path style="fill:#555c62; stroke:none;" d="M302.333 129.667C302.278 129.722 302.222 130.778 302.667 130.333C302.722 130.278 302.778 129.222 302.333 129.667M325 129L326 130L325 129z"/>
<path style="fill:#618cbf; stroke:none;" d="M183 130L184 131L183 130z"/>
<path style="fill:#555c62; stroke:none;" d="M210 130L211 131L210 130z"/>
<path style="fill:#618cbf; stroke:none;" d="M294 130L295 131L294 130M300 130L301 131L300 130M319 130L320 131L319 130z"/>
<path style="fill:#555c62; stroke:none;" d="M364 130L365 131L364 130z"/>
<path style="fill:#618cbf; stroke:none;" d="M182 131L183 132L182 131z"/>
<path style="fill:#555c62; stroke:none;" d="M290 131L290 135C290.71 133.24 290.71 132.759 290 131z"/>
<path style="fill:#fefefe; stroke:none;" d="M291 131C291.012 135.286 290.537 141.934 293.738 145.297C298.631 150.437 310.578 148.331 313 142C308.688 142.352 303.052 144.949 299.144 142.243C294.934 139.327 295.573 133.778 291 131z"/>
<path style="fill:#555c62; stroke:none;" d="M292 131L293 132L292 131z"/>
<path style="fill:#618cbf; stroke:none;" d="M295 131L296 132L295 131z"/>
<path style="fill:#555c62; stroke:none;" d="M301 131L302 132L301 131z"/>
<path style="fill:#618cbf; stroke:none;" d="M318.333 131.667C318.278 131.722 318.222 132.778 318.667 132.333C318.722 132.278 318.778 131.222 318.333 131.667z"/>
<path style="fill:#555c62; stroke:none;" d="M181 132L182 133L181 132M279.333 132.667C279.278 132.722 279.222 133.778 279.667 133.333C279.722 133.278 279.778 132.222 279.333 132.667M296 132L297 133L296 132z"/>
<path style="fill:#050514; stroke:none;" d="M162 133C162.406 135.092 162.217 135.02 164 136C163.309 134.612 163.015 134.139 162 133z"/>
<path style="fill:#555c62; stroke:none;" d="M180 133L181 134L180 133z"/>
<path style="fill:#618cbf; stroke:none;" d="M298 133L299 134L298 133z"/>
<path style="fill:#555c62; stroke:none;" d="M137.333 134.667C137.278 134.722 137.222 135.778 137.667 135.333C137.722 135.278 137.778 134.222 137.333 134.667z"/>
<path style="fill:#618cbf; stroke:none;" d="M295 134L295 137C295.696 135.446 295.696 135.554 295 134z"/>
<path style="fill:#555c62; stroke:none;" d="M361 135L362 136L361 135z"/>
<path style="fill:#618cbf; stroke:none;" d="M178 136L179 137L178 136z"/>
<path style="fill:#555c62; stroke:none;" d="M138 137L139 138L138 137z"/>
<path style="fill:#618cbf; stroke:none;" d="M177 137L178 138L177 137z"/>
<path style="fill:#555c62; stroke:none;" d="M360 137L361 138L360 137M176 138L177 139L176 138M257 138C259.332 138.985 261.457 138.981 264 139C261.668 138.015 259.543 138.019 257 138M299 138L300 139L299 138z"/>
<path style="fill:#618cbf; stroke:none;" d="M318 138L319 139L318 138z"/>
<path style="fill:#555c62; stroke:none;" d="M254 139L255 140L254 139M280.333 139.667C280.278 139.722 280.222 140.778 280.667 140.333C280.722 140.278 280.778 139.222 280.333 139.667z"/>
<path style="fill:#618cbf; stroke:none;" d="M291 139L291 142C291.696 140.446 291.696 140.554 291 139M311 139L312 140L311 139z"/>
<path style="fill:#555c62; stroke:none;" d="M318 139L319 140L318 139z"/>
<path style="fill:#090978; stroke:none;" d="M140 140L141 141L140 140z"/>
<path style="fill:#555c62; stroke:none;" d="M269 140L270 141L269 140z"/>
<path style="fill:#618cbf; stroke:none;" d="M296 140L297 141L296 140M308 140L309 141L308 140z"/>
<path style="fill:#555c62; stroke:none;" d="M309 140L310 141L309 140M358 140L359 141L358 140z"/>
<path style="fill:#618cbf; stroke:none;" d="M174 141L175 142L174 141z"/>
<path style="fill:#090978; stroke:none;" d="M251 141L252 142L251 141z"/>
<path style="fill:#555c62; stroke:none;" d="M271 141L272 142L271 141M297 141L298 142L297 141M302 141L303 142L302 141z"/>
<path style="fill:#618cbf; stroke:none;" d="M303 141C304.248 141.685 304.548 141.749 306 142C304.752 141.315 304.452 141.251 303 141z"/>
<path style="fill:#555c62; stroke:none;" d="M306 141L307 142L306 141M141 142L142 143L141 142M173 142L174 143L173 142M272.667 142.333C272.222 142.778 273.278 142.722 273.333 142.667C273.778 142.222 272.722 142.278 272.667 142.333M291 142L292 143L291 142z"/>
<path style="fill:#618cbf; stroke:none;" d="M298 142L299 143L298 142z"/>
<path style="fill:#555c62; stroke:none;" d="M307 142L308 143L307 142z"/>
<path style="fill:#618cbf; stroke:none;" d="M308 142L309 143L308 142z"/>
<path style="fill:#555c62; stroke:none;" d="M357 142L358 143L357 142M252 143L253 144L252 143z"/>
<path style="fill:#618cbf; stroke:none;" d="M300 143L301 144L300 143z"/>
<path style="fill:#555c62; stroke:none;" d="M301 143C302.248 143.685 302.548 143.749 304 144C302.752 143.315 302.452 143.251 301 143z"/>
<path style="fill:#618cbf; stroke:none;" d="M304 143L305 144L304 143z"/>
<path style="fill:#555c62; stroke:none;" d="M253 144L254 145L253 144M275 144L276 145L275 144z"/>
<path style="fill:#618cbf; stroke:none;" d="M292 144L293 145L292 144M312 144L313 145L312 144z"/>
<path style="fill:#090978; stroke:none;" d="M143 145L144 146L143 145z"/>
<path style="fill:#555c62; stroke:none;" d="M171 145L172 146L171 145M254 145L255 146L254 145M312 145L313 146L312 145z"/>
<path style="fill:#090978; stroke:none;" d="M355 145L356 146L355 145z"/>
<path style="fill:#618cbf; stroke:none;" d="M294 146L295 147L294 146M310 146L311 147L310 146z"/>
<path style="fill:#555c62; stroke:none;" d="M311 146L312 147L311 146M144 147L145 148L144 147M255 147L256 148L255 147M279.667 147.333C279.222 147.778 280.278 147.722 280.333 147.667C280.778 147.222 279.722 147.278 279.667 147.333M295 147L296 148L295 147z"/>
<path style="fill:#618cbf; stroke:none;" d="M296.667 147.333C296.222 147.778 297.278 147.722 297.333 147.667C297.778 147.222 296.722 147.278 296.667 147.333M305 147C306.248 147.685 306.548 147.749 308 148C306.752 147.315 306.452 147.251 305 147z"/>
<path style="fill:#555c62; stroke:none;" d="M308 147L309 148L308 147M354 147L355 148L354 147M169 148L170 149L169 148z"/>
<path style="fill:#fefefe; stroke:none;" d="M170 148L171 149L170 148z"/>
<path style="fill:#555c62; stroke:none;" d="M256 148L257 149L256 148M145 149L146 150L145 149z"/>
<path style="fill:#fefefe; stroke:none;" d="M169 149L170 150L169 149z"/>
<path style="fill:#555c62; stroke:none;" d="M353 149L354 150L353 149z"/>
<path style="fill:#090978; stroke:none;" d="M139.333 150.667C139.278 150.722 139.222 151.778 139.667 151.333C139.722 151.278 139.778 150.222 139.333 150.667z"/>
<path style="fill:#555c62; stroke:none;" d="M257 150L258 151L257 150M309.667 151.333C309.222 151.778 310.278 151.722 310.333 151.667C310.778 151.222 309.722 151.278 309.667 151.333M166 152L167 153L166 152M259 153L260 154L259 153z"/>
<path style="fill:#090978; stroke:none;" d="M284 153L285 154L284 153z"/>
<path style="fill:#618cbf; stroke:none;" d="M285 153C282.692 161.032 285.273 170.441 283.551 179C281.642 188.484 275.674 196.611 274 206C279.591 205.096 281.887 200.332 285.01 196C286.876 193.412 288.917 190.904 290.281 188C294.792 178.395 295.99 158.478 285 153z"/>
<path style="fill:#555c62; stroke:none;" d="M287 153L288 154L287 153M141 154L142 155L141 154M148 154L149 155L148 154M165 154L166 155L165 154M288 154L289 155L288 154M350 154L351 155L350 154M357 154L358 155L357 154z"/>
<path style="fill:#090978; stroke:none;" d="M260 155L261 156L260 155z"/>
<path style="fill:#555c62; stroke:none;" d="M345 155L346 156L345 155M142 156L143 157L142 156M349 156L350 157L349 156M356 156L357 157L356 156M290 158L291 159L290 158z"/>
<path style="fill:#090978; stroke:none;" d="M291.333 158.667C291.278 158.722 291.222 159.778 291.667 159.333C291.722 159.278 291.778 158.222 291.333 158.667z"/>
<path style="fill:#555c62; stroke:none;" d="M308.333 158.667C308.278 158.722 308.222 159.778 308.667 159.333C308.722 159.278 308.778 158.222 308.333 158.667M355 158L356 159L355 158M284 160L284 168C285.161 165.23 285.161 162.77 284 160M342 160L343 161L342 160M145 161L146 162L145 161M152 161L153 162L152 161M262.333 161.667C262.278 161.722 262.222 162.778 262.667 162.333C262.722 162.278 262.778 161.222 262.333 161.667M346 161L347 162L346 161M353 161L354 162L353 161M161 162L162 163L161 162M292 162L293 163L292 162M146 163L147 164L146 163M345 163L346 164L345 163M352 163L353 164L352 163z"/>
<path style="fill:#090978; stroke:none;" d="M154 164L155 165L154 164M344 164L345 165L344 164z"/>
<path style="fill:#555c62; stroke:none;" d="M351 164L352 165L351 164M155 166L156 167L155 166M160 166L161 167L160 166z"/>
<path style="fill:#050514; stroke:none;" d="M178 166L178 171C178.83 168.969 178.83 168.031 178 166z"/>
<path style="fill:#555c62; stroke:none;" d="M343 166L344 167L343 166M350 166L351 167L350 166M263 167C262.988 171.396 262.572 175.645 262 180C265.156 177.242 264.53 170.647 263 167z"/>
<path style="fill:#090978; stroke:none;" d="M149.333 168.667C149.278 168.722 149.222 169.778 149.667 169.333C149.722 169.278 149.778 168.222 149.333 168.667z"/>
<path style="fill:#555c62; stroke:none;" d="M293 168L293 171C293.696 169.446 293.696 169.554 293 168M349 168L350 169L349 168M157 169L157 172C157.696 170.446 157.696 170.554 157 169M177 170L178 176C178.994 173.425 178.654 172.177 177 170M251 170L251 172L253 172L253 170L251 170M151 171L152 172L151 171M284 171L284 174C284.696 172.446 284.696 172.554 284 171M255 172L256 173L255 172M152 173L153 174L152 173M253 173L254 174L253 173M256.667 173.333C256.222 173.778 257.278 173.722 257.333 173.667C257.778 173.222 256.722 173.278 256.667 173.333M346 173L347 174L346 173z"/>
<path style="fill:#090978; stroke:none;" d="M257.333 174.667C257.278 174.722 257.222 175.778 257.667 175.333C257.722 175.278 257.778 174.222 257.333 174.667z"/>
<path style="fill:#555c62; stroke:none;" d="M153 175L154 176L153 175z"/>
<path style="fill:#090978; stroke:none;" d="M345.333 175.667C345.278 175.722 345.222 176.778 345.667 176.333C345.722 176.278 345.778 175.222 345.333 175.667z"/>
<path style="fill:#555c62; stroke:none;" d="M255 176L256 177L255 176z"/>
<path style="fill:#090978; stroke:none;" d="M337 176L338 177L337 176M336.333 177.667C336.278 177.722 336.222 178.778 336.667 178.333C336.722 178.278 336.778 177.222 336.333 177.667z"/>
<path style="fill:#555c62; stroke:none;" d="M155.667 178.333C155.222 178.778 156.278 178.722 156.333 178.667C156.778 178.222 155.722 178.278 155.667 178.333M256 179L257 180L256 179M178 180L178 183C178.696 181.446 178.696 181.554 178 180M292.333 180.667C292.278 180.722 292.222 181.778 292.667 181.333C292.722 181.278 292.778 180.222 292.333 180.667M335 180L336 181L335 180M342 180L343 181L342 180M214 181L214 184C214.696 182.446 214.696 182.554 214 181M257 182L257 187C257.83 184.97 257.83 184.03 257 182M334 182L335 183L334 182M341 182L342 183L341 182M212 185L213 186L212 185M332 185L333 186L332 185M339 185L340 186L339 185M237 186C238.769 186.779 240.036 186.912 242 187C240.231 186.221 238.964 186.088 237 186M281.333 186.667C281.278 186.722 281.222 187.778 281.667 187.333C281.722 187.278 281.778 186.222 281.333 186.667M179 187L180 188L179 187M245 187L246 188L245 187z"/>
<path style="fill:#090978; stroke:none;" d="M257 187L257 190C257.696 188.446 257.696 188.554 257 187z"/>
<path style="fill:#555c62; stroke:none;" d="M290 187L291 188L290 187M300 187L299 189C300.263 188.029 300.392 188.306 300 187z"/>
<path style="fill:#618cbf; stroke:none;" d="M315 221C311.183 220.887 307.812 219.436 304 220C302.774 217.965 302.297 217.674 300 217C302.953 227.345 317.785 232.956 325.826 238.813C328.848 241.014 332.882 247.525 337.397 243.971C340.446 241.572 338.887 234.939 337.633 232C334.949 225.708 329.571 221.41 325.865 215.83C323.13 211.713 321.341 206.575 317 204C317.33 198.291 308.491 187.134 301.986 187.792C294.055 188.594 290.978 200.049 295.032 205.829C297.09 208.763 300.226 210.995 303.001 213.196C306.783 216.196 310.634 218.934 315 221z"/>
<path style="fill:#555c62; stroke:none;" d="M331 187L332 188L331 187M338 187L339 188L338 187M177.333 188.667C177.278 188.722 177.222 189.778 177.667 189.333C177.722 189.278 177.778 188.222 177.333 188.667M305 188L306 189L305 188M337 188L338 189L337 188M161 189L162 190L161 189M280 189L281 190L280 189M149.667 190.333C149.222 190.778 150.278 190.722 150.333 190.667C150.778 190.222 149.722 190.278 149.667 190.333M180 190L181 191L180 190z"/>
<path style="fill:#090978; stroke:none;" d="M216.333 190.667C216.278 190.722 216.222 191.778 216.667 191.333C216.722 191.278 216.778 190.222 216.333 190.667z"/>
<path style="fill:#555c62; stroke:none;" d="M296 190L297 191L296 190M307 190L308 191L307 190M336 190L337 191L336 190M348.667 190.333C348.222 190.778 349.278 190.722 349.333 190.667C349.778 190.222 348.722 190.278 348.667 190.333z"/>
<path style="fill:#618cbf; stroke:none;" d="M149 191L149 266C151.497 260.049 150 251.42 150 245L150 212C150 205.03 149.377 197.817 151 191L149 191z"/>
<path style="fill:#090978; stroke:none;" d="M229 191C227.814 192.186 227.472 192.584 227 194C228.752 193.436 229.542 193.081 231 192L229 191z"/>
<path style="fill:#555c62; stroke:none;" d="M233 191L234 192L233 191z"/>
<path style="fill:#618cbf; stroke:none;" d="M348 191C350.053 199.624 349 209.174 349 218L349 266C351.189 260.783 350 253.619 350 248L350 209C350 204.099 351.899 194.407 348 191z"/>
<path style="fill:#fefefe; stroke:none;" d="M150 192L150 266C161.899 266 175.393 264.237 187 267C187.485 261.924 185.222 253.226 181.656 249.439C178.152 245.718 172.706 243.299 170.053 238.829C167.522 234.565 171.718 231.283 170.701 227C169.792 223.174 166.648 219.391 164.719 216C160.228 208.105 156.237 198.639 150 192z"/>
<path style="fill:#555c62; stroke:none;" d="M181 192L182 193L181 192z"/>
<path style="fill:#090978; stroke:none;" d="M246.667 192.333C246.222 192.778 247.278 192.722 247.333 192.667C247.778 192.222 246.722 192.278 246.667 192.333z"/>
<path style="fill:#555c62; stroke:none;" d="M310 192L311 193L310 192z"/>
<path style="fill:#fefefe; stroke:none;" d="M348 192C344.581 198.424 340.698 204.598 337.231 211C335.973 213.321 333.704 216.21 334.018 219C334.321 221.693 336.742 223.903 338.241 226C341.093 229.991 344.558 235.848 344.103 241C343.795 244.483 340.964 247.018 339.438 250C336.98 254.803 335.42 260.798 334 266L349 266L349 215C349 208.049 350.701 198.436 348 192z"/>
<path style="fill:#618cbf; stroke:none;" d="M151 193L152 194L151 193z"/>
<path style="fill:#555c62; stroke:none;" d="M213 193L214 194L213 193M217 193L218 194L217 193M250.667 193.333C250.222 193.778 251.278 193.722 251.333 193.667C251.778 193.222 250.722 193.278 250.667 193.333M286 193L287 194L286 193M294 193L295 194L294 193M311 193L312 194L311 193z"/>
<path style="fill:#618cbf; stroke:none;" d="M347 193L348 194L347 193z"/>
<path style="fill:#555c62; stroke:none;" d="M152 194L153 195L152 194M259 194L260 195L259 194M327 194L328 195L327 194M346 194L347 195L346 194M293 195L294 196L293 195M153 196L154 197L153 196M163 196L164 197L163 196z"/>
<path style="fill:#090978; stroke:none;" d="M183 196L184 197L183 196z"/>
<path style="fill:#555c62; stroke:none;" d="M212 196L213 197L212 196M277 196L278 197L277 196M284 196L285 197L284 196M345 196L346 197L345 196M265 197L266 198L265 197M325 197L326 198L325 197M332 197L333 198L332 197z"/>
<path style="fill:#618cbf; stroke:none;" d="M154 198L155 199L154 198z"/>
<path style="fill:#555c62; stroke:none;" d="M185.333 198.667C185.278 198.722 185.222 199.778 185.667 199.333C185.722 199.278 185.778 198.222 185.333 198.667M211 198L212 199L211 198M216 198L217 199L216 198z"/>
<path style="fill:#090978; stroke:none;" d="M266.333 198.667C266.278 198.722 266.222 199.778 266.667 199.333C266.722 199.278 266.778 198.222 266.333 198.667z"/>
<path style="fill:#555c62; stroke:none;" d="M276 198L277 199L276 198z"/>
<path style="fill:#618cbf; stroke:none;" d="M344 198L345 199L344 198z"/>
<path style="fill:#555c62; stroke:none;" d="M155 199L156 200L155 199M164 199L165 200L164 199z"/>
<path style="fill:#090978; stroke:none;" d="M282 199L283 200L282 199z"/>
<path style="fill:#555c62; stroke:none;" d="M316 199L317 200L316 199M324 199L325 200L324 199M331 199L332 200L331 199z"/>
<path style="fill:#090978; stroke:none;" d="M281.333 200.667C281.278 200.722 281.222 201.778 281.667 201.333C281.722 201.278 281.778 200.222 281.333 200.667z"/>
<path style="fill:#555c62; stroke:none;" d="M292.333 200.667C292.278 200.722 292.222 201.778 292.667 201.333C292.722 201.278 292.778 200.222 292.333 200.667M156 201L157 202L156 201M165 201L166 202L165 201M180 201L181 202L180 201M210 201L211 202L210 201z"/>
<path style="fill:#090978; stroke:none;" d="M330 201L331 202L330 201z"/>
<path style="fill:#555c62; stroke:none;" d="M342 201L343 202L342 201M329 202L330 203L329 202z"/>
<path style="fill:#618cbf; stroke:none;" d="M157 203L158 204L157 203z"/>
<path style="fill:#555c62; stroke:none;" d="M279 203L280 204L279 203M317.667 203.333C317.222 203.778 318.278 203.722 318.333 203.667C318.778 203.222 317.722 203.278 317.667 203.333M341 203L342 204L341 203z"/>
<path style="fill:#090978; stroke:none;" d="M286.667 204.333C286.222 204.778 287.278 204.722 287.333 204.667C287.778 204.222 286.722 204.278 286.667 204.333z"/>
<path style="fill:#555c62; stroke:none;" d="M323 204L324 205L323 204M328 204L329 205L328 204z"/>
<path style="fill:#618cbf; stroke:none;" d="M158 205L159 206L158 205z"/>
<path style="fill:#555c62; stroke:none;" d="M167 205L168 206L167 205M192 205L193 206L192 205M209 205L210 206L209 205M278 205L279 206L278 205z"/>
<path style="fill:#618cbf; stroke:none;" d="M286 205C282.887 212.75 277.766 213.995 270 214L269 222C273.623 221.413 279.422 218.992 284 219.683C289.876 220.569 293.766 225.731 300 225C297.276 220.206 291.62 218.447 288.912 213.826C287.404 211.253 287.967 207.851 288 205L286 205z"/>
<path style="fill:#555c62; stroke:none;" d="M288.333 205.667C288.278 205.722 288.222 206.778 288.667 206.333C288.722 206.278 288.778 205.222 288.333 205.667z"/>
<path style="fill:#618cbf; stroke:none;" d="M340 205L341 206L340 205z"/>
<path style="fill:#555c62; stroke:none;" d="M159 206L160 207L159 206M182 206L182 209C182.696 207.446 182.696 207.554 182 206M193 206L194 207L193 206z"/>
<path style="fill:#090978; stroke:none;" d="M275 206C276.248 206.685 276.548 206.749 278 207C276.752 206.315 276.452 206.251 275 206z"/>
<path style="fill:#555c62; stroke:none;" d="M285 206L286 207L285 206M295 206L296 207L295 206M324 206L325 207L324 206M327 206L328 207L327 206M339 206L340 207L339 206M168 207L169 208L168 207M320 207L321 208L320 207M160 208L161 209L160 208M196 208L197 209L196 208M284.333 208.667C284.278 208.722 284.222 209.778 284.667 209.333C284.722 209.278 284.778 208.222 284.333 208.667M297 208L298 209L297 208z"/>
<path style="fill:#090978; stroke:none;" d="M321 208L322 209L321 208z"/>
<path style="fill:#555c62; stroke:none;" d="M338 208L339 209L338 208M198 209L199 210L198 209M298 209L299 210L298 209z"/>
<path style="fill:#618cbf; stroke:none;" d="M161 210L162 211L161 210z"/>
<path style="fill:#555c62; stroke:none;" d="M299 210L300 211L299 210M322 210L323 211L322 210z"/>
<path style="fill:#618cbf; stroke:none;" d="M337 210L338 211L337 210z"/>
<path style="fill:#555c62; stroke:none;" d="M184 211L185 212L184 211M201 211L202 212L201 211M287.333 211.667C287.278 211.722 287.222 212.778 287.667 212.333C287.722 212.278 287.778 211.222 287.333 211.667z"/>
<path style="fill:#618cbf; stroke:none;" d="M162 212L163 213L162 212z"/>
<path style="fill:#555c62; stroke:none;" d="M185.333 212.667C185.278 212.722 185.222 213.778 185.667 213.333C185.722 213.278 185.778 212.222 185.333 212.667M214 212L214 216C214.71 214.24 214.71 213.759 214 212M281 212L282 213L281 212M302 212L303 213L302 212z"/>
<path style="fill:#618cbf; stroke:none;" d="M336 212L337 213L336 212z"/>
<path style="fill:#555c62; stroke:none;" d="M163 213L164 214L163 213M244.333 213.667C244.278 213.722 244.222 214.778 244.667 214.333C244.722 214.278 244.778 213.222 244.333 213.667z"/>
<path style="fill:#090978; stroke:none;" d="M303 213L304 214L303 213z"/>
<path style="fill:#555c62; stroke:none;" d="M335 213L336 214L335 213M186.333 214.667C186.278 214.722 186.222 215.778 186.667 215.333C186.722 215.278 186.778 214.222 186.333 214.667M266 214L266 216C267.635 215.455 267.455 215.635 268 214L266 214M288 214L289 215L288 214M304 214L305 215L304 214z"/>
<path style="fill:#618cbf; stroke:none;" d="M335 214L336 215L335 214z"/>
<path style="fill:#555c62; stroke:none;" d="M164 215L165 216L164 215M289 215L290 216L289 215M325 215L326 216L325 215M334 215L335 216L334 215M177 216L178 217L177 216M250 216L250 220C250.71 218.24 250.71 217.759 250 216M269.333 216.667C269.278 216.722 269.222 217.778 269.667 217.333C269.722 217.278 269.778 216.222 269.333 216.667M307 216L308 217L307 216M326.333 216.667C326.278 216.722 326.222 217.778 326.667 217.333C326.722 217.278 326.778 216.222 326.333 216.667z"/>
<path style="fill:#618cbf; stroke:none;" d="M165 217L166 218L165 217z"/>
<path style="fill:#555c62; stroke:none;" d="M179 217L180 218L179 217z"/>
<path style="fill:#090978; stroke:none;" d="M244 217L245 218L244 217z"/>
<path style="fill:#555c62; stroke:none;" d="M258 219L262 218C259.954 217.249 259.404 217.344 258 219z"/>
<path style="fill:#618cbf; stroke:none;" d="M333 217L334 218L333 217z"/>
<path style="fill:#555c62; stroke:none;" d="M166 218L167 219L166 218M188 218L189 219L188 218z"/>
<path style="fill:#090978; stroke:none;" d="M293 218L294 219L293 218z"/>
<path style="fill:#555c62; stroke:none;" d="M304 218L304 220C305.635 219.455 305.455 219.635 306 218L304 218M310 218L311 219L310 218z"/>
<path style="fill:#618cbf; stroke:none;" d="M166 219L167 220L166 219z"/>
<path style="fill:#090978; stroke:none;" d="M182.667 219.333C182.222 219.778 183.278 219.722 183.333 219.667C183.778 219.222 182.722 219.278 182.667 219.333z"/>
<path style="fill:#555c62; stroke:none;" d="M215 219L216 220L215 219M241 219L242 220L241 219M307 219L308 220L307 219M328 219L329 220L328 219M167 220L168 221L167 220M262 220L263 221L262 220M278 220L279 221L278 220M296 220L297 221L296 220M263 221L264 222L263 221M268 221L269 222L268 221M272 221C273.248 221.685 273.548 221.749 275 222C273.752 221.315 273.452 221.251 272 221M282 221C283.248 221.685 283.549 221.749 285 222C283.752 221.315 283.452 221.251 282 221M334 221L335 222L334 221z"/>
<path style="fill:#618cbf; stroke:none;" d="M168 222L169 223L168 222z"/>
<path style="fill:#555c62; stroke:none;" d="M237 222L238 223L237 222M264 222L264 225C264.696 223.446 264.696 223.554 264 222z"/>
<path style="fill:#090978; stroke:none;" d="M279 224C275.61 223.46 272.416 223.863 269 224C265.647 241.291 267.857 259.891 256.15 274.13C251.2 280.152 248.135 283.926 240 284C240.365 286.762 241.547 289.279 241.871 292.039C242.335 295.986 241.469 300.106 242.418 304C243.828 309.784 247.678 313.784 248 320C254.649 317.746 258.447 306.737 261.938 301C271.389 285.468 278.861 268.404 288.806 253.196C291.889 248.48 294.903 243.906 297.709 239C299.012 236.722 301.159 233.906 301.093 231.147C301.025 228.32 297.663 227.518 295.572 226.505C291.019 224.298 283.252 219.134 279 224z"/>
<path style="fill:#555c62; stroke:none;" d="M290 222L291 223L290 222M303 222L304 223L303 222M335 222L336 223L335 222M236 223L237 224L236 223M292 223L293 224L292 223z"/>
<path style="fill:#618cbf; stroke:none;" d="M336 223L337 224L336 223M169 224L170 225L169 224z"/>
<path style="fill:#555c62; stroke:none;" d="M202.667 224.333C202.222 224.778 203.278 224.722 203.333 224.667C203.778 224.222 202.722 224.278 202.667 224.333M234 224L235 225L234 224M268 224L268 227C268.696 225.446 268.696 225.554 268 224M294 224L295 225L294 224z"/>
<path style="fill:#618cbf; stroke:none;" d="M337 224L338 225L337 224z"/>
<path style="fill:#555c62; stroke:none;" d="M170 225L171 226L170 225z"/>
<path style="fill:#618cbf; stroke:none;" d="M200 226C199.598 230.088 197.061 233.084 196 237C199.901 236.916 204.024 236.696 206.731 233.442C211.247 228.017 204.816 224.839 200 226z"/>
<path style="fill:#555c62; stroke:none;" d="M205 225L206 226L205 225M217 225L218 226L217 225M299 225L300 226L299 225M333 225L334 226L333 225M249.333 226.667C249.278 226.722 249.222 227.778 249.667 227.333C249.722 227.278 249.778 226.222 249.333 226.667M334 226L335 227L334 226M338 226L339 227L338 226M171 227L172 228L171 227M208 227L209 228L208 227z"/>
<path style="fill:#090978; stroke:none;" d="M218 227L219 228L218 227z"/>
<path style="fill:#555c62; stroke:none;" d="M229 227L230 228L229 227M297.667 227.333C297.222 227.778 298.278 227.722 298.333 227.667C298.778 227.222 297.722 227.278 297.667 227.333M309 227L310 228L309 227M339 227L340 228L339 227M209 228L209 231C209.696 229.446 209.696 229.554 209 228M226 228L227 229L226 228z"/>
<path style="fill:#618cbf; stroke:none;" d="M171 229L172 230L171 229z"/>
<path style="fill:#555c62; stroke:none;" d="M301.667 229.333C301.222 229.778 302.278 229.722 302.333 229.667C302.778 229.222 301.722 229.278 301.667 229.333M336 229L337 230L336 229M340 229L341 230L340 229M198 230L198 232C199.635 231.455 199.455 231.635 200 230L198 230M263 230L263 233C263.696 231.446 263.696 231.554 263 230z"/>
<path style="fill:#090978; stroke:none;" d="M312 230L313 231L312 230z"/>
<path style="fill:#555c62; stroke:none;" d="M313 230L314 231L313 230z"/>
<path style="fill:#618cbf; stroke:none;" d="M341 230L342 231L341 230z"/>
<path style="fill:#555c62; stroke:none;" d="M208 231L209 232L208 231M245 231L246 232L245 231z"/>
<path style="fill:#618cbf; stroke:none;" d="M306 231C292.312 254.211 278.276 277.385 265.306 301C261.975 307.063 258.522 313.04 255.011 319C253.107 322.231 251.712 325.807 248 327C246.865 331.771 246.854 335.541 249 340C256.982 332.626 260.9 320.138 266.695 311C277.397 294.126 287.121 276.448 296.862 259C301.608 250.498 308.274 242.444 311 233C309.255 232.11 307.875 231.547 306 231z"/>
<path style="fill:#555c62; stroke:none;" d="M308 231L309 232L308 231M314 231L315 232L314 231M337 231L338 232L337 231M341 231L342 232L341 231M169 232L170 233L169 232M197 232L198 233L197 232z"/>
<path style="fill:#618cbf; stroke:none;" d="M244 232C240.805 236.498 237.061 239.774 232 242C234.938 243.26 237.369 244.008 240 246C244.18 242.179 244.695 237.284 246 232L244 232z"/>
<path style="fill:#090978; stroke:none;" d="M304.333 232.667C304.278 232.722 304.222 233.778 304.667 233.333C304.722 233.278 304.778 232.222 304.333 232.667z"/>
<path style="fill:#555c62; stroke:none;" d="M315 232L316 233L315 232M196 233L197 234L196 233M243 233L244 234L243 233z"/>
<path style="fill:#090978; stroke:none;" d="M245.333 233.667C245.278 233.722 245.222 234.778 245.667 234.333C245.722 234.278 245.778 233.222 245.333 233.667z"/>
<path style="fill:#555c62; stroke:none;" d="M311 233L312 234L311 233M317 233L318 234L317 233M338 233L339 234L338 233z"/>
<path style="fill:#618cbf; stroke:none;" d="M342 233L343 234L342 233M168 234L168 237C168.696 235.446 168.696 235.554 168 234z"/>
<path style="fill:#555c62; stroke:none;" d="M195.333 234.667C195.278 234.722 195.222 235.778 195.667 235.333C195.722 235.278 195.778 234.222 195.333 234.667M205 234L206 235L205 234M248.333 234.667C248.278 234.722 248.222 235.778 248.667 235.333C248.722 235.278 248.778 234.222 248.333 234.667M318 234L319 235L318 234M342 234L343 235L342 234M241 235L242 236L241 235M303 235L304 236L303 235M310 235L311 236L310 235z"/>
<path style="fill:#090978; stroke:none;" d="M319 235L320 236L319 235z"/>
<path style="fill:#555c62; stroke:none;" d="M202 236L203 237L202 236M240 236L241 237L240 236M321 236L322 237L321 236z"/>
<path style="fill:#618cbf; stroke:none;" d="M343 236L344 237L343 236z"/>
<path style="fill:#555c62; stroke:none;" d="M239 237L240 238L239 237M302 237L303 238L302 237M323 237L324 238L323 237M343 237L344 238L343 237M169 238L170 239L169 238M238 238L239 239L238 238M339 238L339 242C339.71 240.241 339.71 239.759 339 238z"/>
<path style="fill:#618cbf; stroke:none;" d="M187 239C189.139 246.019 210.472 254.915 198 261C198.598 266.377 203.605 269.911 203.957 275C204.254 279.297 200.758 283.749 200 288C202.6 288.536 206.966 290.433 209.437 288.882C211.234 287.754 211.781 284.897 212.25 282.999C214.1 275.507 211.804 269.281 210.758 262C210.382 259.382 211.203 256.536 210.358 254.004C207.933 246.739 194.032 240.254 187 239z"/>
<path style="fill:#555c62; stroke:none;" d="M237 239L238 240L237 239z"/>
<path style="fill:#618cbf; stroke:none;" d="M170 240L171 241L170 240z"/>
<path style="fill:#090978; stroke:none;" d="M235 240L236 241L235 240z"/>
<path style="fill:#555c62; stroke:none;" d="M262.333 240.667C262.278 240.722 262.222 241.778 262.667 241.333C262.722 241.278 262.778 240.222 262.333 240.667z"/>
<path style="fill:#618cbf; stroke:none;" d="M320 240L319 242C320.263 241.029 320.392 241.306 320 240M344 240L344 243C344.696 241.446 344.696 241.554 344 240z"/>
<path style="fill:#555c62; stroke:none;" d="M172 241L173 242L172 241M194 241L195 242L194 241M233 241L234 242L233 241M243.333 241.667C243.278 241.722 243.222 242.778 243.667 242.333C243.722 242.278 243.778 241.222 243.333 241.667M247.333 241.667C247.278 241.722 247.222 242.778 247.667 242.333C247.722 242.278 247.778 241.222 247.333 241.667z"/>
<path style="fill:#fefefe; stroke:none;" d="M320 241C314.479 249.37 309.683 258.288 304.719 267C301.92 271.913 298.605 276.542 297 282C299.269 281.992 302.481 282.448 304.411 280.972C306.837 279.117 306.86 274.594 308.275 272C312.776 263.746 324.237 251.392 320 241z"/>
<path style="fill:#555c62; stroke:none;" d="M321 241L322 242L321 241M173 242L174 243L173 242z"/>
<path style="fill:#090978; stroke:none;" d="M196 242L197 243L196 242z"/>
<path style="fill:#555c62; stroke:none;" d="M232 243C233.769 243.779 235.036 243.912 237 244C235.098 242.844 234.278 242.844 232 243M266 242L266 246C266.71 244.241 266.71 243.759 266 242M299 242L300 243L299 242M306 242L307 243L306 242M318 242L319 243L318 242z"/>
<path style="fill:#618cbf; stroke:none;" d="M321.333 242.667C321.278 242.722 321.222 243.778 321.667 243.333C321.722 243.278 321.778 242.222 321.333 242.667z"/>
<path style="fill:#555c62; stroke:none;" d="M329 242L330 243L329 242z"/>
<path style="fill:#618cbf; stroke:none;" d="M174 243L175 244L174 243z"/>
<path style="fill:#555c62; stroke:none;" d="M189 243L190 244L189 243z"/>
<path style="fill:#618cbf; stroke:none;" d="M318 243L319 244L318 243z"/>
<path style="fill:#555c62; stroke:none;" d="M330 243L331 244L330 243z"/>
<path style="fill:#618cbf; stroke:none;" d="M175 244L176 245L175 244z"/>
<path style="fill:#555c62; stroke:none;" d="M198.667 244.333C198.222 244.778 199.278 244.722 199.333 244.667C199.778 244.222 198.722 244.278 198.667 244.333M238 244L239 245L238 244M305 244L306 245L305 244M317 244L318 245L317 244M321 244L322 245L321 244z"/>
<path style="fill:#618cbf; stroke:none;" d="M343 244L344 245L343 244z"/>
<path style="fill:#555c62; stroke:none;" d="M177 245L178 246L177 245M201 245L202 246L201 245M241 245L242 246L241 245M297 245L298 246L297 245M333 245C334.506 245.683 335.315 245.826 337 246C335.494 245.317 334.685 245.174 333 245M342 245L343 246L342 245M178 246L179 247L178 246z"/>
<path style="fill:#090978; stroke:none;" d="M246.333 246.667C246.278 246.722 246.222 247.778 246.667 247.333C246.722 247.278 246.778 246.222 246.333 246.667z"/>
<path style="fill:#555c62; stroke:none;" d="M296.333 246.667C296.278 246.722 296.222 247.778 296.667 247.333C296.722 247.278 296.778 246.222 296.333 246.667M316 246L317 247L316 246M341 246L342 247L341 246z"/>
<path style="fill:#618cbf; stroke:none;" d="M179 247L180 248L179 247z"/>
<path style="fill:#555c62; stroke:none;" d="M204 247L205 248L204 247z"/>
<path style="fill:#618cbf; stroke:none;" d="M320 247L321 248L320 247M180 248L181 249L180 248z"/>
<path style="fill:#555c62; stroke:none;" d="M195 248L196 249L195 248z"/>
<path style="fill:#618cbf; stroke:none;" d="M315 248L316 249L315 248z"/>
<path style="fill:#555c62; stroke:none;" d="M196 249L197 250L196 249M227 249L228 250L227 249M238 249L239 250L238 249M295 249L296 250L295 249M302 249L303 250L302 249M314 249L315 250L314 249z"/>
<path style="fill:#618cbf; stroke:none;" d="M339 249L340 250L339 249z"/>
<path style="fill:#090978; stroke:none;" d="M197 250L198 251L197 250z"/>
<path style="fill:#555c62; stroke:none;" d="M225 250L226 251L225 250M244 250L245 251L244 250z"/>
<path style="fill:#090978; stroke:none;" d="M261.333 250.667C261.278 250.722 261.222 251.778 261.667 251.333C261.722 251.278 261.778 250.222 261.333 250.667z"/>
<path style="fill:#618cbf; stroke:none;" d="M314 250L315 251L314 250M319 250L320 251L319 250M183 251L184 252L183 251z"/>
<path style="fill:#555c62; stroke:none;" d="M199.667 251.333C199.222 251.778 200.278 251.722 200.333 251.667C200.778 251.222 199.722 251.278 199.667 251.333M209 251L210 252L209 251M294 251L295 252L294 251M301 251L302 252L301 251M313 251L314 252L313 251M319 251L320 252L319 251z"/>
<path style="fill:#618cbf; stroke:none;" d="M338 251L339 252L338 251z"/>
<path style="fill:#555c62; stroke:none;" d="M184 252L185 253L184 252M293 252L294 253L293 252M300 252L301 253L300 252M242 253L243 254L242 253z"/>
<path style="fill:#618cbf; stroke:none;" d="M312 253L313 254L312 253M318 253L319 254L318 253z"/>
<path style="fill:#555c62; stroke:none;" d="M337 253L338 254L337 253M240 254C240.545 255.635 240.365 255.455 242 256C241.455 254.365 241.635 254.545 240 254M292 254L293 255L292 254M299 254L300 255L299 254z"/>
<path style="fill:#618cbf; stroke:none;" d="M337.333 254.667C337.278 254.722 337.222 255.778 337.667 255.333C337.722 255.278 337.778 254.222 337.333 254.667z"/>
<path style="fill:#555c62; stroke:none;" d="M203 255L204 256L203 255M222 255L223 256L222 255z"/>
<path style="fill:#050514; stroke:none;" d="M240 255L240 259C240.71 257.241 240.71 256.759 240 255z"/>
<path style="fill:#618cbf; stroke:none;" d="M311 255L312 256L311 255z"/>
<path style="fill:#555c62; stroke:none;" d="M260.333 256.667C260.278 256.722 260.222 257.778 260.667 257.333C260.722 257.278 260.778 256.222 260.333 256.667M310 256L311 257L310 256z"/>
<path style="fill:#618cbf; stroke:none;" d="M317 256L318 257L317 256M334 256C327.676 257.875 322.216 264.743 320.49 271.001C319.561 274.367 319.795 278.767 317.976 281.787C315.967 285.122 311.598 286.573 309.105 289.619C306.605 292.673 306.084 296.595 303.864 299.698C301.282 303.307 295.664 303.749 292.153 306.212C290.44 307.414 288.987 309.352 290.662 311.277C296.773 318.299 306.681 309.625 310.722 304.91C312.946 302.317 313.668 298.97 315.702 296.285C318.682 292.355 323.426 289.794 325.258 285C326.968 280.523 325.358 275.527 327.228 271C329.463 265.586 333.374 262.075 334 256z"/>
<path style="fill:#555c62; stroke:none;" d="M203 257L204 258L203 257z"/>
<path style="fill:#090978; stroke:none;" d="M290 257L291 258L290 257z"/>
<path style="fill:#555c62; stroke:none;" d="M297 257L298 258L297 257M336 257L337 258L336 257M210 258L210 262C210.71 260.241 210.71 259.759 210 258M221 258L222 259L221 258M290 258L291 259L290 258M309 258L310 259L309 258M328 258L328 260C329.635 259.455 329.455 259.635 330 258L328 258z"/>
<path style="fill:#618cbf; stroke:none;" d="M336 258L337 259L336 258z"/>
<path style="fill:#555c62; stroke:none;" d="M240 259L241 260L240 259z"/>
<path style="fill:#090978; stroke:none;" d="M289 259L290 260L289 259z"/>
<path style="fill:#555c62; stroke:none;" d="M296 259L297 260L296 259M316 259L317 260L316 259M185 260L186 261L185 260M200 260L201 261L200 260z"/>
<path style="fill:#618cbf; stroke:none;" d="M308 260L309 261L308 260z"/>
<path style="fill:#555c62; stroke:none;" d="M333 260L334 261L333 260M335 260L336 261L335 260M186 261L187 262L186 261M197 261L197 264C197.696 262.446 197.696 262.554 197 261M259 261L260 262L259 261M295 261L296 262L295 261M307 261L308 262L307 261z"/>
<path style="fill:#618cbf; stroke:none;" d="M315 261L316 262L315 261z"/>
<path style="fill:#555c62; stroke:none;" d="M326 261L327 262L326 261z"/>
<path style="fill:#618cbf; stroke:none;" d="M335 261L336 262L335 261M187 262L188 263L187 262M307 262L308 263L307 262z"/>
<path style="fill:#555c62; stroke:none;" d="M332 262L333 263L332 262M334 262L335 263L334 262z"/>
<path style="fill:#090978; stroke:none;" d="M286.333 263.667C286.278 263.722 286.222 264.778 286.667 264.333C286.722 264.278 286.778 263.222 286.333 263.667z"/>
<path style="fill:#555c62; stroke:none;" d="M306 263L307 264L306 263M314 263L315 264L314 263M324 263L325 264L324 263z"/>
<path style="fill:#618cbf; stroke:none;" d="M334 263L335 264L334 263M313 264L314 265L313 264z"/>
<path style="fill:#555c62; stroke:none;" d="M333.333 264.667C333.278 264.722 333.222 265.778 333.667 265.333C333.722 265.278 333.778 264.222 333.333 264.667M187 265L188 266L187 265M198 265L199 266L198 265M211 265L212 266L211 265M305 265L306 266L305 265M322 265L323 266L322 265M285 266L286 267L285 266M312 266L313 267L312 266z"/>
<path style="fill:#090978; stroke:none;" d="M329.333 266.667C329.278 266.722 329.222 267.778 329.667 267.333C329.722 267.278 329.778 266.222 329.333 266.667z"/>
<path style="fill:#618cbf; stroke:none;" d="M186 267L187 268L186 267M304 267L305 268L304 267z"/>
<path style="fill:#555c62; stroke:none;" d="M311 267L312 268L311 267M321 267L322 268L321 267M200 268L201 269L200 268M212 268L213 269L212 268M256 268L257 269L256 268M291 268L292 269L291 268M303 268L304 269L303 268M310 268L311 269L310 268M201 269L202 270L201 269z"/>
<path style="fill:#618cbf; stroke:none;" d="M303 269L304 270L303 269M309 269L310 270L309 269z"/>
<path style="fill:#555c62; stroke:none;" d="M327 269L328 270L327 269M202 270L203 271L202 270M255 270L256 271L255 270M283 270L284 271L283 270M290 270L291 271L290 270M302 270L303 271L302 270M320 270L321 271L320 270z"/>
<path style="fill:#090978; stroke:none;" d="M254 271L255 272L254 271z"/>
<path style="fill:#555c62; stroke:none;" d="M308 271L309 272L308 271z"/>
<path style="fill:#618cbf; stroke:none;" d="M301 272L302 273L301 272M307 272L308 273L307 272z"/>
<path style="fill:#555c62; stroke:none;" d="M326 272L326 281C327.256 278.006 327.256 274.994 326 272z"/>
<path style="fill:#090978; stroke:none;" d="M204 273L204 276C204.696 274.446 204.696 274.554 204 273z"/>
<path style="fill:#555c62; stroke:none;" d="M213 273L213 277C213.71 275.241 213.71 274.759 213 273M222 273L223 274L222 273M281 273L282 274L281 273M288 273L289 274L288 273M307 273L308 274L307 273M251 274L252 275L251 274z"/>
<path style="fill:#618cbf; stroke:none;" d="M300 274L301 275L300 274z"/>
<path style="fill:#555c62; stroke:none;" d="M319.333 274.667C319.278 274.722 319.222 275.778 319.667 275.333C319.722 275.278 319.778 274.222 319.333 274.667M223 275L224 276L223 275M280 275L281 276L280 275M287 275L288 276L287 275M299 275L300 276L299 275M11 276C14.6987 277.552 19.0172 277 23 277L45 277C41.3013 275.448 36.9828 276 33 276L11 276M139 276C142.959 277.661 147.74 277 152 277L175 277C171.041 275.339 166.26 276 162 276L139 276z"/>
<path style="fill:#090978; stroke:none;" d="M279 276L280 277L279 276z"/>
<path style="fill:#618cbf; stroke:none;" d="M306 276L306 280C306.71 278.241 306.71 277.759 306 276z"/>
<path style="fill:#555c62; stroke:none;" d="M328 276C331.699 277.552 336.017 277 340 277L360 277C356.301 275.448 351.983 276 348 276L328 276M454 276C457.699 277.552 462.017 277 466 277L488 277C484.301 275.448 479.983 276 476 276L454 276z"/>
<path style="fill:#090978; stroke:none;" d="M224 277L225 278L224 277z"/>
<path style="fill:#555c62; stroke:none;" d="M249 277L250 278L249 277z"/>
<path style="fill:#618cbf; stroke:none;" d="M298 277L299 278L298 277z"/>
<path style="fill:#555c62; stroke:none;" d="M203 278L204 279L203 278M225 278L226 279L225 278M248 278L249 279L248 278M278 278L279 279L278 278M285 278L286 279L285 278z"/>
<path style="fill:#618cbf; stroke:none;" d="M297 279L298 280L297 279z"/>
<path style="fill:#555c62; stroke:none;" d="M228 280L229 281L228 280M238.667 280.333C238.222 280.778 239.278 280.722 239.333 280.667C239.778 280.222 238.722 280.278 238.667 280.333M296.333 280.667C296.278 280.722 296.222 281.778 296.667 281.333C296.722 281.278 296.778 280.222 296.333 280.667M306 280L307 281L306 280z"/>
<path style="fill:#618cbf; stroke:none;" d="M305 281L306 282L305 281z"/>
<path style="fill:#555c62; stroke:none;" d="M16 284C27.0125 281.378 39.7134 283 51 283C43.8431 279.997 32.7414 281.997 25 282C21.6832 282.001 18.2757 281.396 16 284M133 282C136.959 283.661 141.74 283 146 283L169 283C165.041 281.339 160.26 282 156 282L133 282M302.667 282.333C302.222 282.778 303.278 282.722 303.333 282.667C303.778 282.222 302.722 282.278 302.667 282.333M330 282C333.959 283.661 338.74 283 343 283L366 283C362.041 281.339 357.26 282 353 282L330 282M448 282C451.699 283.552 456.017 283 460 283L482 283C478.301 281.448 473.983 282 470 282L448 282M186 283L187 284L186 283M275 283L276 284L275 283z"/>
<path style="fill:#fefefe; stroke:none;" d="M186 284L186 360L0 360L0 362L249 362C246.34 355.826 241.507 343.649 235.671 340.024C230.155 336.598 220.839 338.139 216.927 331.671C213.677 326.298 220.948 319.654 220.424 314C220.123 310.748 218.013 307.735 216.397 305C214.206 301.293 212.203 296.3 208.787 293.563C203.185 289.076 192.722 286.795 186 284z"/>
<path style="fill:#618cbf; stroke:none;" d="M187 284L188 285L187 284M229 284C229.658 287.415 231.886 290.55 232.118 294C232.349 297.444 230.673 300.529 231.714 304C233.072 308.531 236.746 312.12 237.171 317C237.733 323.456 235.054 330.422 235 337L244 336C244.054 329.423 246.88 322.496 245.659 316C244.753 311.18 240.792 307.723 239.819 303C238.469 296.448 242.47 287.642 233.735 284.514C232.214 283.969 230.584 284.048 229 284z"/>
<path style="fill:#555c62; stroke:none;" d="M235 284L235 286L237 286C236.455 284.365 236.635 284.545 235 284M281.333 284.667C281.278 284.722 281.222 285.778 281.667 285.333C281.722 285.278 281.778 284.222 281.333 284.667z"/>
<path style="fill:#618cbf; stroke:none;" d="M189 285L190 286L189 285z"/>
<path style="fill:#555c62; stroke:none;" d="M211 285L212 286L211 285M274 285L275 286L274 285M325 285L326 286L325 285M327 285L328 286L327 285z"/>
<path style="fill:#618cbf; stroke:none;" d="M191 286L192 287L191 286z"/>
<path style="fill:#555c62; stroke:none;" d="M237 286L238 287L237 286z"/>
<path style="fill:#618cbf; stroke:none;" d="M193 287L194 288L193 287z"/>
<path style="fill:#555c62; stroke:none;" d="M194 287L195 288L194 287M238 287L239 288L238 287M273 287L274 288L273 287M280 287L281 288L280 287z"/>
<path style="fill:#090978; stroke:none;" d="M310 287L311 288L310 287z"/>
<path style="fill:#555c62; stroke:none;" d="M324 287L323 289C324.263 288.029 324.392 288.306 324 287M196 288L197 289L196 288M202 288L203 289L202 288z"/>
<path style="fill:#090978; stroke:none;" d="M272 288L273 289L272 288z"/>
<path style="fill:#555c62; stroke:none;" d="M309 288L308 290L310 290C310 288.147 310.3 288.65 309 288z"/>
<path style="fill:#090978; stroke:none;" d="M324 288L324 290L326 290L326 288L324 288z"/>
<path style="fill:#618cbf; stroke:none;" d="M198 289L199 290L198 289z"/>
<path style="fill:#555c62; stroke:none;" d="M199 289L200 290L199 289M230 289L231 290L230 289M239 289L240 290L239 289M322 289L323 290L322 289z"/>
<path style="fill:#618cbf; stroke:none;" d="M201 290L202 291L201 290z"/>
<path style="fill:#555c62; stroke:none;" d="M202 290L203 291L202 290M231 290L232 291L231 290z"/>
<path style="fill:#090978; stroke:none;" d="M271 290L272 291L271 290z"/>
<path style="fill:#555c62; stroke:none;" d="M321 290L322 291L321 290z"/>
<path style="fill:#618cbf; stroke:none;" d="M204 291L205 292L204 291z"/>
<path style="fill:#555c62; stroke:none;" d="M205 291L206 292L205 291M266 291L267 292L266 291M307 291L308 292L307 291z"/>
<path style="fill:#618cbf; stroke:none;" d="M208 292C208.545 293.635 208.365 293.455 210 294C209.455 292.365 209.635 292.545 208 292z"/>
<path style="fill:#555c62; stroke:none;" d="M209 292L210 293L209 292M232 292L232 295C232.696 293.446 232.696 293.554 232 292M240 292L240 296C240.71 294.241 240.71 293.759 240 292M277 292L278 293L277 292z"/>
<path style="fill:#090978; stroke:none;" d="M306 293L307 294L306 293z"/>
<path style="fill:#555c62; stroke:none;" d="M210 294L211 295L210 294M315 295L316 296L315 295M211 296L212 297L211 296M267 297L268 298L267 297M274 297L275 298L274 297M314 297L315 298L314 297z"/>
<path style="fill:#618cbf; stroke:none;" d="M212 298L213 299L212 298z"/>
<path style="fill:#555c62; stroke:none;" d="M231 298L232 299L231 298M304.333 298.667C304.278 298.722 304.222 299.778 304.667 299.333C304.722 299.278 304.778 298.222 304.333 298.667M213 299L214 300L213 299M273 299L274 300L273 299z"/>
<path style="fill:#618cbf; stroke:none;" d="M213 300L214 301L213 300z"/>
<path style="fill:#555c62; stroke:none;" d="M239 300L239 304C239.71 302.241 239.71 301.759 239 300M313 300L314 301L313 300M214 301L215 302L214 301M299 302L300 303L299 302z"/>
<path style="fill:#618cbf; stroke:none;" d="M215 303L216 304L215 303z"/>
<path style="fill:#555c62; stroke:none;" d="M297 303L298 304L297 303M263 304L264 305L263 304M295 304L296 305L295 304M311 304L312 305L311 304z"/>
<path style="fill:#618cbf; stroke:none;" d="M216 305L217 306L216 305z"/>
<path style="fill:#555c62; stroke:none;" d="M240 305L241 306L240 305M293 305L294 306L293 305M310 305L311 306L310 305M217 306L218 307L217 306M241.333 306.667C241.278 306.722 241.222 307.778 241.667 307.333C241.722 307.278 241.778 306.222 241.333 306.667M262 306L263 307L262 306M269 306L270 307L269 306M309 306L310 307L309 306z"/>
<path style="fill:#090978; stroke:none;" d="M233 307L234 308L233 307z"/>
<path style="fill:#618cbf; stroke:none;" d="M281 307L282 308L281 307z"/>
<path style="fill:#555c62; stroke:none;" d="M218 308L219 309L218 308M242 308L243 309L242 308M280 308L281 309L280 308z"/>
<path style="fill:#fefefe; stroke:none;" d="M281 308C270.419 325.286 258.017 343.395 250 362L499 362L499 360L313 360L313 308C308.888 310.809 304.968 315.054 300 316.311C292.666 318.166 286.037 312.288 281 308z"/>
<path style="fill:#555c62; stroke:none;" d="M282 308L283 309L282 308M306 308L307 309L306 308M260 309L261 310L260 309M267 309L268 310L267 309M305 309L306 310L305 309z"/>
<path style="fill:#618cbf; stroke:none;" d="M219 310L220 311L219 310z"/>
<path style="fill:#555c62; stroke:none;" d="M243 310L244 311L243 310z"/>
<path style="fill:#618cbf; stroke:none;" d="M279 310L280 311L279 310M283 310L284 311L283 310z"/>
<path style="fill:#555c62; stroke:none;" d="M309 310L310 311L309 310M259 311L260 312L259 311M284 311L285 312L284 311M303 311L304 312L303 311z"/>
<path style="fill:#618cbf; stroke:none;" d="M308 311L309 312L308 311M220 312L221 313L220 312z"/>
<path style="fill:#555c62; stroke:none;" d="M265.333 312.667C265.278 312.722 265.222 313.778 265.667 313.333C265.722 313.278 265.778 312.222 265.333 312.667z"/>
<path style="fill:#618cbf; stroke:none;" d="M278 312L279 313L278 312z"/>
<path style="fill:#555c62; stroke:none;" d="M285 312L286 313L285 312M302 312L303 313L302 312M306 312L307 313L306 312z"/>
<path style="fill:#618cbf; stroke:none;" d="M307 312L308 313L307 312z"/>
<path style="fill:#555c62; stroke:none;" d="M236 313L237 314L236 313M258 313L259 314L258 313M277 313L278 314L277 313z"/>
<path style="fill:#618cbf; stroke:none;" d="M286 313L287 314L286 313z"/>
<path style="fill:#555c62; stroke:none;" d="M287 313L288 314L287 313M295 313L296 314L295 313M305 313L306 314L305 313M245 314L246 315L245 314M257 314L258 315L257 314M264 314L265 315L264 314z"/>
<path style="fill:#618cbf; stroke:none;" d="M289 314L290 315L289 314M304 314L305 315L304 314M276 315L277 316L276 315M292 315L293 316L292 315z"/>
<path style="fill:#555c62; stroke:none;" d="M302 315L303 316L302 315M220 316L221 317L220 316z"/>
<path style="fill:#090978; stroke:none;" d="M237 316L237 319C237.696 317.446 237.696 317.554 237 316z"/>
<path style="fill:#555c62; stroke:none;" d="M256 316L257 317L256 316M263 316L264 317L263 316z"/>
<path style="fill:#618cbf; stroke:none;" d="M295 316L296 317L295 316z"/>
<path style="fill:#555c62; stroke:none;" d="M296 316C297.769 316.779 299.036 316.912 301 317C299.231 316.221 297.964 316.088 296 316z"/>
<path style="fill:#618cbf; stroke:none;" d="M275 317L276 318L275 317z"/>
<path style="fill:#555c62; stroke:none;" d="M255 318L256 319L255 318M262 318L263 319L262 318M274 318L275 319L274 318M219 319L220 320L219 319M273 320L274 321L273 320z"/>
<path style="fill:#618cbf; stroke:none;" d="M218 321L219 322L218 321z"/>
<path style="fill:#090978; stroke:none;" d="M253 321L254 322L253 321z"/>
<path style="fill:#555c62; stroke:none;" d="M260 321L261 322L260 321z"/>
<path style="fill:#618cbf; stroke:none;" d="M272 322L273 323L272 322M217 323L218 324L217 323z"/>
<path style="fill:#555c62; stroke:none;" d="M245.333 323.667C245.278 323.722 245.222 324.778 245.667 324.333C245.722 324.278 245.778 323.222 245.333 323.667M252 323L253 324L252 323M259 323L260 324L259 323M217 324L218 325L217 324z"/>
<path style="fill:#618cbf; stroke:none;" d="M271 324L272 325L271 324z"/>
<path style="fill:#555c62; stroke:none;" d="M251 325L252 326L251 325M258 325L259 326L258 325M270 325L271 326L270 325z"/>
<path style="fill:#618cbf; stroke:none;" d="M216 326L217 327L216 326z"/>
<path style="fill:#555c62; stroke:none;" d="M216 327L217 328L216 327M247.333 327.667C247.278 327.722 247.222 328.778 247.667 328.333C247.722 328.278 247.778 327.222 247.333 327.667M269 327L270 328L269 327M235.333 328.667C235.278 328.722 235.222 329.778 235.667 329.333C235.722 329.278 235.778 328.222 235.333 328.667M244.333 328.667C244.278 328.722 244.222 329.778 244.667 329.333C244.722 329.278 244.778 328.222 244.333 328.667z"/>
<path style="fill:#618cbf; stroke:none;" d="M215.333 329.667C215.278 329.722 215.222 330.778 215.667 330.333C215.722 330.278 215.778 329.222 215.333 329.667M268 329L269 330L268 329z"/>
<path style="fill:#555c62; stroke:none;" d="M255 330L256 331L255 330M267 330L268 331L267 330z"/>
<path style="fill:#618cbf; stroke:none;" d="M267 331L268 332L267 331M216 332L217 333L216 332z"/>
<path style="fill:#555c62; stroke:none;" d="M266 332L267 333L266 332M218 333L219 334L218 333M246 333L246 337C246.71 335.241 246.71 334.759 246 333z"/>
<path style="fill:#618cbf; stroke:none;" d="M219 334L220 335L219 334z"/>
<path style="fill:#555c62; stroke:none;" d="M222.333 334.667C222.278 334.722 222.222 335.778 222.667 335.333C222.722 335.278 222.778 334.222 222.333 334.667M234 334L234 337C234.696 335.446 234.696 335.554 234 334z"/>
<path style="fill:#618cbf; stroke:none;" d="M265 334L266 335L265 334M221 335L222 336L221 335z"/>
<path style="fill:#555c62; stroke:none;" d="M224 336L225 337L224 336M240 336L241 337L240 336z"/>
<path style="fill:#618cbf; stroke:none;" d="M264 336L265 337L264 336M226 337L227 338L226 337z"/>
<path style="fill:#555c62; stroke:none;" d="M227 337L228 338L227 337M263 337L264 338L263 337z"/>
<path style="fill:#618cbf; stroke:none;" d="M229 338L230 339L229 338z"/>
<path style="fill:#555c62; stroke:none;" d="M230 338L231 339L230 338M236 339L237 340L236 339M262 339L263 340L262 339z"/>
<path style="fill:#618cbf; stroke:none;" d="M237 341L238 342L237 341M261 341L262 342L261 341M260 343L261 344L260 343z"/>
<path style="fill:#555c62; stroke:none;" d="M239 344L240 345L239 344M259 344L260 345L259 344M240 346L241 347L240 346z"/>
<path style="fill:#618cbf; stroke:none;" d="M258 346L259 347L258 346M241 348L242 349L241 348M257 348L258 349L257 348z"/>
<path style="fill:#555c62; stroke:none;" d="M242 349L243 350L242 349M256 349L257 350L256 349z"/>
<path style="fill:#618cbf; stroke:none;" d="M256 350L257 351L256 350z"/>
<path style="fill:#555c62; stroke:none;" d="M243 351L244 352L243 351M255 351L256 352L255 351z"/>
<path style="fill:#618cbf; stroke:none;" d="M244 353L245 354L244 353M254 353L255 354L254 353z"/>
<path style="fill:#555c62; stroke:none;" d="M253 354L254 355L253 354z"/>
<path style="fill:#618cbf; stroke:none;" d="M245 355L246 356L245 355M253 355L254 356L253 355z"/>
<path style="fill:#555c62; stroke:none;" d="M246 356L247 357L246 356M252 356L253 357L252 356M247 358L248 359L247 358M251 358L252 359L251 358M0 359C5.21648 361.189 12.3809 360 18 360L55 360L186 360C180.784 357.811 173.619 359 168 359L131 359L0 359M313 359C318.216 361.189 325.381 360 331 360L368 360L499 360C493.784 357.811 486.619 359 481 359L444 359L313 359z"/>
<path style="fill:#618cbf; stroke:none;" d="M248 360L249 361L248 360M250 360L251 361L250 360z"/>
<path style="fill:#555c62; stroke:none;" d="M249 361L250 362L249 361z"/>
</svg>
