<svg id="Layer_1" data-name="Layer 1" xmlns="http://www.w3.org/2000/svg" xmlns:xlink="http://www.w3.org/1999/xlink" viewBox="0 0 1920 1080"><defs><style>.cls-1{fill:none;}.cls-2{fill:#49506b;}.cls-3{clip-path:url(#clip-path);}</style><clipPath id="clip-path"><path class="cls-1" d="M545.61,781.82C493,640.34,405.75,644.17,347.81,506.42c-15.88-37.76-65.65-156.12-10.64-271C391.22,122.51,509.42,89.82,518.69,87.68,603.78,68,644,100.9,750.28,120.22,938.17,154.38,965,79.48,1199.7,93.94c132,8.13,236.61,14.57,312.33,95.76,61.52,66,98.67,175.6,68.85,262.89-17.86,52.3-43.47,48.89-80.12,118.92-49.6,94.8-28.54,150.48-53.82,217.83-39.27,104.58-157.08,148.9-270.4,191.53-177.16,66.64-498.31,124.52-593.38-13.77C545.47,912.27,584.54,886.57,545.61,781.82Z"/></clipPath></defs><title>vmss60-hotelArtboard 1</title><path class="cls-2" d="M638.87,411.9c2.06-89.21,43.52-172.14,126.44-338,4.33-8.68,12.31-24.24,28.79-37.56,60.22-48.7,164.38-11.29,202.8,2.5,107.46,38.59,187.19,108.28,272.9,205.31C1357.14,343,1418,437.25,1533.94,631c55.81,93.25,75.55,133.5,73.86,189-2.73,89.42-60,183.38-137.71,224.08C1295,1135.74,1047.51,940.67,946.82,861.32,823.36,764,634.19,614.92,638.87,411.9Z"/><g class="cls-3"><image width="4000" height="6000" transform="translate(304 -286) scale(0.39)" xlink:href="../../../../Pictures/Scotland/_MG_1627-Enhanced.png"/></g></svg>