<svg xmlns="http://www.w3.org/2000/svg" viewBox="0 0 5760.43 3629.71"><defs><style>.cls-1{fill:#bc7e6f;}.cls-1,.cls-2{stroke:#000;stroke-miterlimit:10;}.cls-2{fill:#213375;}.cls-3{fill:#0c326e;}.cls-4{fill:#aa8768;}</style></defs><title>vmss60Asset 6</title><g id="Layer_2" data-name="Layer 2"><g id="Layer_1-2" data-name="Layer 1"><path class="cls-1" d="M11.84,437.12c7.82-185.17,121-346.82,286-409,191-72,415.74,2.76,509,154,79.76,129.33,40.86,278.12,9,400-16,61.13-57.08,210.58-191,341-51.53,50.19-237.74,231.54-400,173-128-46.17-171.5-216.47-200-328C-10.5,629.81-.35,510.35,11.84,437.12Z"/><path class="cls-2" d="M1488.84,691.12c101.61-141.49,300.77-203.89,473-182,176.55,22.45,392.8,142.11,404,291,6.09,80.87-51.43,128.73-254,341-377.67,395.78-391.45,453.36-391,496,2.56,241.67,465.21,322.21,445,472-20.89,154.84-550.32,328.84-945,114-189.78-103.3-430.11-341-391-564,48.08-274.1,476.46-287.36,582-672C1447.61,856.79,1416.74,791.53,1488.84,691.12Z"/><path class="cls-3" d="M3592.84,900.12c-223.7,7.77-390.82,130.62-541,241-171.31,125.93-302.39,222.28-354,387-93.16,297.35,182.19,467.73,95,704-110.93,300.61-649.53,276.48-654,441-3.71,137,369.87,143.29,714,505,175,183.89,158.69,266.65,290,331,336.35,164.85,917.61-145.53,910-372-8.73-260.23-793.59-366.5-773-523,20.9-158.83,818.32,35.17,1304-418,334.74-312.32,475.15-888.89,269-1187-68.7-99.35-215.43-224.93-369-213-153.9,12-172.25,151-350,200C3927.09,1053.14,3858.15,890.91,3592.84,900.12Z"/><path class="cls-4" d="M5311.84,2628.12c-99.39-17.54-338-55.18-664-37-249.34,13.91-293.24,46.17-318,73-89.46,97-10.32,211.48-64,400-77.43,272-331.41,347.22-300,427,34,86.39,320.78-29.75,764,18,398,42.89,476.45,169.91,654,100,308.43-121.42,479.89-665.37,309-868C5647.52,2687.38,5535.63,2667.63,5311.84,2628.12Z"/></g></g></svg>