<svg id="Layer_1" data-name="Layer 1" xmlns="http://www.w3.org/2000/svg" viewBox="0 0 5813.53 3628.48"><defs><style>.cls-1{fill:#f9b2b2;}.cls-1,.cls-2{stroke:#000;stroke-miterlimit:10;}.cls-2{fill:#213375;}.cls-3{fill:#20347f;}.cls-4{fill:#f9974e;}</style></defs><title>vmss603</title><path class="cls-1" d="M245.5,156.5c26.74-27.35,92.37-77.49,367-58,156.63,11.11,157.38,29,291,41,285.64,25.67,376.26-47.57,475,25,90.94,66.84,101.71,193.4,109,279,27,317.85-215.14,542.92-233,559-114.9,103.46-228.31,135-401,183-112.33,31.23-428.83,119.22-509,3-44.92-65.11,22-139.83-36-224-51.05-74.12-120.6-41.83-184-112-98-108.46-44.21-310-29-367s37.93-106.37,75-187C208.27,216.34,227.16,175.26,245.5,156.5Z" transform="translate(-66.56 -93.61)"/><path class="cls-2" d="M1608.5,783.5c101.6-141.49,300.76-203.9,473-182,176.54,22.45,392.79,142.1,404,291,6.09,80.86-51.43,128.73-254,341-377.68,395.77-391.45,453.35-391,496,2.55,241.67,465.21,322.21,445,472-20.89,154.84-550.33,328.83-945,114-189.79-103.31-430.11-341-391-564,48.07-274.1,476.46-287.37,582-672C1567.26,949.16,1536.4,883.91,1608.5,783.5Z" transform="translate(-66.56 -93.61)"/><path class="cls-3" d="M3712.5,992.5c-223.7,7.77-390.82,130.61-541,241-171.32,125.93-302.39,222.28-354,387-93.16,297.35,182.19,467.73,95,704-110.93,300.61-649.54,276.48-654,441-3.72,137,369.86,143.29,714,505,171.35,180.1,155.59,275.64,290,331,249.38,102.72,651.2-66.64,758.5-332.5,94.75-234.75-109.72-372.33,0-625,92.28-212.51,263.46-176.34,341-400,53.5-154.31-26.42-176.05,9-508,18.64-174.67,47-227.47,25-350-10.11-56.2-35.41-196.84-142.5-297.5C4093.91,938.5,3855.26,987.54,3712.5,992.5Z" transform="translate(-66.56 -93.61)"/><path class="cls-4" d="M5431.5,2720.5c-99.4-17.55-338-55.19-664-37-249.34,13.91-293.25,46.17-318,73-89.46,97-10.33,211.47-64,400-77.44,272-331.41,347.22-300,427,34,86.39,320.78-29.76,764,18,398,42.88,476.44,169.9,654,100,308.43-121.42,479.88-665.37,309-868C5767.18,2779.76,5655.28,2760,5431.5,2720.5Z" transform="translate(-66.56 -93.61)"/></svg>